<svg width="411" height="448" viewBox="0 0 411 448" fill="none" xmlns="http://www.w3.org/2000/svg">
<g filter="url(#filter0_d_635_2)">
<path fill-rule="evenodd" clip-rule="evenodd" d="M411 375L394 362.404C377 348.548 342 323.356 308 313.279C274 301.942 240 306.981 205 318.317C171 328.394 137 343.51 103 353.587C68 364.923 34 369.962 17 372.481L6.46929e-06 375L0 281.788H17C34 281.788 68 281.788 103 281.788C137 281.788 171 281.788 205 281.788C240 281.788 274 281.788 308 281.788C342 281.788 377 281.788 394 281.788H411V375Z" fill="url(#paint0_linear_635_2)"/>
<path d="M6.46929e-06 -18H411V281.788L0 281.788L6.46929e-06 -18Z" fill="url(#paint1_linear_635_2)"/>
</g>
<path d="M350.478 205.221L323.382 196.364L297.877 181.308L296.1 190.147L317.419 207.322L345.367 217.128L350.478 205.221Z" fill="#A26760"/>
<path d="M283.498 172.515C284.806 172.353 292.21 176.619 292.21 176.619L293.205 176.138C293.631 175.928 294.096 175.807 294.571 175.783C295.046 175.76 295.52 175.834 295.965 176.001C296.41 176.168 296.816 176.425 297.158 176.755C297.499 177.085 297.77 177.482 297.952 177.921C299.139 180.775 300.435 184.376 300.435 184.376L296.482 189.788L294.745 190.367C293.24 191.114 290.114 188.943 288.053 187.345C285.992 185.748 287.22 184.509 287.22 184.509C286.027 182.431 288.042 181.84 288.042 181.84C287.046 179.965 288.927 178.946 288.927 178.946C288.927 178.946 284.094 175.953 282.786 174.691C281.477 173.429 282.207 172.677 283.498 172.515Z" fill="#A26760"/>
<path d="M288.1 181.765C288.513 182.136 288.95 182.48 289.408 182.795C289.632 182.971 289.868 183.132 290.114 183.276C290.41 183.429 290.729 183.534 291.058 183.589C291.426 183.667 291.808 183.653 292.169 183.548C292.367 183.481 292.548 183.373 292.702 183.231C292.855 183.09 292.977 182.918 293.06 182.726C293.134 182.518 293.146 182.293 293.095 182.078C293.043 181.88 292.948 181.696 292.817 181.539C292.577 181.266 292.313 181.015 292.03 180.787C291.568 180.393 291.079 180.033 290.566 179.71C290.22 179.497 289.862 179.304 289.495 179.131C289.365 179.055 289.224 178.999 289.078 178.963C289.078 178.998 289.628 179.288 290.473 179.866C290.965 180.205 291.437 180.572 291.885 180.966C292.152 181.189 292.4 181.432 292.626 181.696C292.742 181.822 292.823 181.977 292.859 182.145C292.896 182.313 292.887 182.487 292.835 182.651C292.762 182.809 292.659 182.951 292.531 183.068C292.402 183.185 292.252 183.276 292.088 183.334C291.765 183.43 291.423 183.446 291.092 183.38C290.785 183.333 290.487 183.242 290.207 183.108C289.964 182.975 289.73 182.826 289.506 182.662C289.06 182.328 288.59 182.028 288.1 181.765Z" fill="#7B4B45"/>
<path d="M287.063 184.156C287.063 184.156 287.156 184.283 287.359 184.48C287.561 184.677 287.856 184.943 288.25 185.25C288.716 185.617 289.238 185.906 289.796 186.107C290.133 186.235 290.495 186.287 290.855 186.257C291.063 186.251 291.265 186.185 291.435 186.065C291.606 185.946 291.738 185.78 291.815 185.586C291.892 185.393 291.91 185.181 291.868 184.978C291.826 184.774 291.726 184.587 291.579 184.439C291.357 184.167 291.109 183.917 290.838 183.693C290.401 183.307 289.945 182.944 289.471 182.604C289.066 182.315 288.725 182.095 288.487 181.956C288.369 181.872 288.238 181.808 288.1 181.765C288.1 181.765 288.592 182.13 289.367 182.743C289.755 183.044 290.207 183.421 290.687 183.861C290.943 184.076 291.178 184.317 291.388 184.578C291.498 184.7 291.574 184.849 291.61 185.009C291.645 185.169 291.638 185.336 291.59 185.493C291.519 185.64 291.41 185.766 291.275 185.859C291.14 185.951 290.983 186.007 290.82 186.02C290.496 186.05 290.17 186.007 289.865 185.892C289.326 185.708 288.817 185.444 288.354 185.111C287.555 184.538 287.092 184.127 287.063 184.156Z" fill="#7B4B45"/>
<path d="M286.988 186.228C287.186 186.567 287.447 186.863 287.758 187.102C288.08 187.38 288.432 187.623 288.806 187.826C289.029 187.953 289.266 188.054 289.512 188.127C289.658 188.169 289.812 188.176 289.961 188.146C290.11 188.117 290.25 188.053 290.369 187.959C290.48 187.847 290.556 187.706 290.588 187.552C290.62 187.397 290.606 187.237 290.548 187.091C290.45 186.848 290.307 186.626 290.126 186.437C289.836 186.123 289.508 185.849 289.147 185.62C288.837 185.391 288.512 185.182 288.175 184.995C288.424 185.294 288.719 185.552 289.049 185.759C289.38 186 289.685 186.276 289.958 186.581C290.114 186.75 290.237 186.946 290.322 187.16C290.357 187.258 290.364 187.364 290.344 187.465C290.323 187.567 290.276 187.662 290.207 187.739C290.117 187.809 290.012 187.856 289.9 187.877C289.788 187.898 289.673 187.893 289.564 187.861C289.337 187.793 289.118 187.702 288.91 187.588C288.542 187.405 288.193 187.186 287.868 186.934C287.307 186.541 287.023 186.199 286.988 186.228Z" fill="#7B4B45"/>
<path d="M293.205 176.138C291.81 176.85 289.79 177.979 288.534 178.819C288.644 179.751 289.691 180.353 290.606 180.324C291.543 180.218 292.437 179.871 293.199 179.316C293.05 179.785 293.001 180.279 293.053 180.767C293.106 181.256 293.26 181.728 293.506 182.154C293.752 182.579 294.084 182.949 294.48 183.239C294.877 183.529 295.33 183.732 295.81 183.837" fill="#A26760"/>
<path d="M295.81 183.837C295.291 183.665 294.805 183.405 294.374 183.068C293.905 182.68 293.547 182.175 293.338 181.603C293.078 180.877 293.062 180.087 293.292 179.351L293.385 179.062L293.124 179.218C292.429 179.699 291.64 180.026 290.809 180.179C289.801 180.329 288.713 179.693 288.609 178.807L288.557 178.911C289.865 178.043 291.04 177.383 291.868 176.903L292.829 176.324C292.948 176.265 293.061 176.193 293.165 176.11C293.036 176.143 292.912 176.192 292.794 176.254C292.563 176.364 292.215 176.532 291.799 176.752C290.953 177.198 289.767 177.835 288.43 178.697L288.377 178.732V178.801C288.416 179.062 288.514 179.311 288.664 179.529C288.813 179.747 289.01 179.927 289.24 180.057C289.716 180.348 290.278 180.467 290.832 180.393C291.69 180.233 292.504 179.89 293.217 179.386L293.043 179.253C292.806 180.037 292.834 180.877 293.124 181.643C293.365 182.243 293.765 182.766 294.282 183.154C294.608 183.413 294.979 183.609 295.376 183.733C295.513 183.795 295.66 183.83 295.81 183.837Z" fill="#7B4B45"/>
<path d="M329.587 368.936L333.489 381.492C333.489 381.492 320.013 386.268 319.984 388.803L346.496 388.467L341.905 367.576L329.587 368.936Z" fill="#455A64"/>
<g opacity="0.6">
<path opacity="0.6" d="M341.622 379.935C341.88 380.001 342.105 380.159 342.255 380.38C342.404 380.601 342.467 380.869 342.432 381.133C342.376 381.389 342.226 381.614 342.012 381.765C341.797 381.915 341.534 381.979 341.274 381.944C341.002 381.871 340.765 381.702 340.608 381.468C340.452 381.233 340.386 380.95 340.423 380.67C340.509 380.404 340.694 380.182 340.941 380.05C341.187 379.918 341.475 379.887 341.743 379.964" fill="white"/>
</g>
<g opacity="0.6">
<path opacity="0.6" d="M346.496 388.467L346.033 386.337L320.811 387.541C320.542 387.685 320.313 387.894 320.146 388.149C319.978 388.403 319.876 388.696 319.85 389L346.496 388.467Z" fill="white"/>
</g>
<path d="M333.054 381.382C333.054 381.509 333.714 381.538 334.369 381.92C335.023 382.302 335.393 382.829 335.526 382.771C335.659 382.713 335.416 381.978 334.612 381.527C333.807 381.075 333.02 381.266 333.054 381.382Z" fill="#263238"/>
<path d="M330.334 382.667C330.334 382.795 330.913 382.986 331.347 383.512C331.781 384.039 331.972 384.612 332.099 384.595C332.227 384.577 332.273 383.848 331.683 383.206C331.092 382.563 330.328 382.546 330.334 382.667Z" fill="#263238"/>
<path d="M328.921 386.071C329.043 386.071 329.188 385.44 328.823 384.745C328.458 384.051 327.833 383.808 327.787 383.918C327.74 384.028 328.128 384.386 328.424 384.96C328.719 385.533 328.794 386.065 328.921 386.071Z" fill="#263238"/>
<path d="M333.147 378.25C333.205 378.366 333.79 378.158 334.525 378.169C335.26 378.181 335.839 378.384 335.903 378.268C335.966 378.152 335.393 377.718 334.531 377.718C333.668 377.718 333.06 378.152 333.147 378.25Z" fill="#263238"/>
<path d="M332.944 375.495C333.384 375.596 333.843 375.571 334.27 375.426C334.744 375.315 335.202 375.147 335.636 374.928C335.891 374.795 336.139 374.648 336.377 374.488C336.521 374.396 336.65 374.283 336.759 374.152C336.833 374.052 336.873 373.932 336.873 373.808C336.873 373.684 336.833 373.563 336.759 373.463C336.69 373.377 336.601 373.308 336.501 373.262C336.401 373.216 336.291 373.194 336.18 373.197C336.012 373.2 335.846 373.231 335.688 373.289C335.409 373.372 335.137 373.48 334.878 373.614C334.44 373.838 334.04 374.129 333.691 374.476C333.112 375.055 332.921 375.57 332.968 375.593C333.014 375.617 333.309 375.211 333.911 374.714C334.264 374.421 334.653 374.176 335.069 373.984C335.313 373.875 335.564 373.784 335.821 373.712C336.099 373.625 336.337 373.614 336.4 373.712C336.464 373.81 336.435 373.776 336.4 373.857C336.322 373.953 336.228 374.035 336.122 374.1C335.903 374.259 335.675 374.406 335.439 374.54C335.038 374.769 334.618 374.962 334.183 375.119C333.762 375.216 333.348 375.342 332.944 375.495Z" fill="#263238"/>
<path d="M333.147 375.674C333.199 375.674 333.431 375.217 333.437 374.378C333.433 373.885 333.347 373.395 333.182 372.931C333.081 372.656 332.953 372.393 332.8 372.143C332.722 371.972 332.6 371.824 332.446 371.714C332.293 371.604 332.113 371.537 331.926 371.518C331.807 371.525 331.693 371.567 331.597 371.638C331.502 371.709 331.429 371.806 331.387 371.918C331.326 372.075 331.289 372.241 331.277 372.41C331.247 372.707 331.26 373.008 331.318 373.301C331.419 373.793 331.637 374.254 331.955 374.644C332.533 375.304 333.054 375.431 333.066 375.385C333.078 375.339 332.638 375.09 332.209 374.453C331.963 374.083 331.8 373.664 331.729 373.226C331.691 372.973 331.691 372.715 331.729 372.462C331.729 372.178 331.845 371.947 331.955 371.97C332.065 371.993 332.319 372.161 332.441 372.381C332.583 372.603 332.705 372.837 332.806 373.081C332.974 373.5 333.083 373.94 333.13 374.389C333.147 375.165 333.049 375.657 333.147 375.674Z" fill="#263238"/>
<path d="M247.365 278.326L237.182 287.455C237.182 287.455 225.269 279.53 223.226 281.029L239.434 302.031L255.88 288.479L247.365 278.326Z" fill="#455A64"/>
<g opacity="0.6">
<path opacity="0.6" d="M243.312 293.006C243.425 293.255 243.439 293.537 243.352 293.796C243.265 294.054 243.083 294.271 242.844 294.401C242.603 294.516 242.328 294.532 242.075 294.448C241.823 294.364 241.613 294.185 241.489 293.95C241.382 293.689 241.374 293.397 241.467 293.131C241.56 292.864 241.747 292.641 241.993 292.503C242.257 292.412 242.546 292.427 242.8 292.544C243.053 292.662 243.252 292.873 243.353 293.134" fill="white"/>
</g>
<g opacity="0.6">
<path opacity="0.6" d="M239.417 302.031L241.072 300.665L224.737 280.931C224.46 280.806 224.157 280.751 223.855 280.77C223.552 280.789 223.259 280.882 223 281.041L239.417 302.031Z" fill="white"/>
</g>
<path d="M237.009 287.027C236.916 287.113 237.281 287.646 237.373 288.404C237.466 289.163 237.258 289.77 237.373 289.828C237.489 289.886 237.952 289.249 237.819 288.346C237.686 287.443 237.084 286.928 237.009 287.027Z" fill="#263238"/>
<path d="M234.346 285.626C234.23 285.684 234.421 286.257 234.282 286.945C234.143 287.634 233.779 288.103 233.865 288.196C233.952 288.288 234.566 287.883 234.728 287.038C234.89 286.193 234.444 285.55 234.346 285.626Z" fill="#263238"/>
<path d="M230.78 286.54C230.832 286.65 231.446 286.372 231.776 285.666C232.106 284.96 231.938 284.312 231.822 284.335C231.706 284.358 231.654 284.914 231.37 285.493C231.087 286.071 230.687 286.436 230.78 286.54Z" fill="#263238"/>
<path d="M239.561 285.209C239.504 285.325 240.025 285.666 240.453 286.262C240.881 286.859 241.072 287.42 241.2 287.42C241.327 287.42 241.333 286.685 240.818 285.99C240.302 285.296 239.602 285.093 239.561 285.209Z" fill="#263238"/>
<path d="M241.651 283.403C241.611 283.438 241.877 283.883 242.502 284.422C242.876 284.734 243.286 285.001 243.723 285.215C243.981 285.344 244.248 285.454 244.522 285.545C244.682 285.605 244.85 285.642 245.02 285.655C245.147 285.661 245.273 285.625 245.377 285.553C245.482 285.481 245.56 285.376 245.599 285.255C245.627 285.147 245.629 285.035 245.605 284.926C245.58 284.817 245.531 284.716 245.46 284.63C245.353 284.501 245.228 284.388 245.09 284.294C244.856 284.118 244.606 283.965 244.343 283.837C243.901 283.624 243.428 283.482 242.942 283.414C242.502 283.308 242.039 283.338 241.616 283.501C241.616 283.576 242.12 283.548 242.884 283.727C243.326 283.832 243.752 283.993 244.152 284.207C244.388 284.334 244.613 284.482 244.823 284.647C245.061 284.815 245.211 284.995 245.165 285.134C245.165 285.18 245.13 285.197 245.032 285.203C244.907 285.191 244.785 285.164 244.667 285.122C244.409 285.042 244.156 284.948 243.909 284.838C243.489 284.653 243.088 284.428 242.71 284.167C242.051 283.721 241.686 283.356 241.651 283.403Z" fill="#263238"/>
<path d="M241.616 283.652C241.616 283.704 242.149 283.6 242.826 283.102C243.219 282.805 243.558 282.443 243.828 282.031C243.987 281.787 244.121 281.527 244.227 281.255C244.321 281.091 244.37 280.906 244.37 280.717C244.37 280.528 244.321 280.342 244.227 280.179C244.149 280.09 244.047 280.024 243.933 279.991C243.82 279.957 243.699 279.956 243.585 279.987C243.423 280.034 243.269 280.105 243.127 280.196C242.869 280.352 242.637 280.547 242.438 280.775C242.103 281.147 241.864 281.596 241.744 282.083C241.667 282.3 241.634 282.53 241.647 282.759C241.66 282.989 241.719 283.213 241.819 283.42C241.869 283.001 241.946 282.585 242.051 282.176C242.2 281.757 242.434 281.375 242.739 281.053C242.91 280.871 243.105 280.713 243.318 280.584C243.561 280.433 243.805 280.37 243.851 280.468C243.891 280.571 243.908 280.681 243.901 280.791C243.894 280.901 243.863 281.008 243.81 281.105C243.719 281.352 243.604 281.59 243.469 281.817C243.235 282.203 242.948 282.556 242.618 282.864C242.045 283.403 241.587 283.588 241.616 283.652Z" fill="#263238"/>
<path d="M368.921 209.886C368.805 210.361 354.779 221.394 352.713 224.387C350.646 227.38 345.697 238.737 345.697 238.737L336.858 247.831L359.804 259.507L389.749 230.06L394.507 218.153L387.671 209.163L372.73 206.761L368.921 209.886Z" fill="#F2F2F2"/>
<path d="M371.509 207.779L350.507 203.455L343.601 217.082L363.132 226.043L371.509 207.779Z" fill="#F2F2F2"/>
<g opacity="0.3">
<path opacity="0.3" d="M361.726 253.672C360.204 242.984 357.833 232.435 354.635 222.124L353.477 224.231L356.533 254.031C356.571 255.095 356.83 256.14 357.292 257.099C357.478 257.584 357.822 257.992 358.268 258.257C358.714 258.523 359.236 258.631 359.751 258.565C360.266 258.498 360.743 258.26 361.107 257.889C361.47 257.518 361.698 257.036 361.755 256.52C361.927 255.578 361.917 254.611 361.726 253.672Z" fill="black"/>
</g>
<path d="M241.107 278.616C241.107 278.616 262.108 261.493 271.023 253.145C272.297 251.96 273.833 251.094 275.507 250.618C277.18 250.142 278.943 250.07 280.65 250.407L331.642 253.441L319.405 282.129L283.515 271.71L254.571 294.725L241.107 278.616Z" fill="#263238"/>
<path d="M336.875 247.854C336.435 247.999 321.824 260.37 321.246 267.86C321.246 267.86 307.995 322.337 309.176 327.669C310.357 333 329.049 377.718 329.049 377.718L346.073 373.197L334.918 328.074L346.791 294.76C346.791 294.76 356.782 290.031 359.445 280.404C362.108 270.778 359.816 259.53 359.816 259.53L336.875 247.854Z" fill="#263238"/>
<path d="M327.457 260.248C327.423 260.349 327.374 260.445 327.312 260.532C327.191 260.74 327.04 261.001 326.849 261.319C326.438 261.99 325.871 262.98 325.193 264.213C324.516 265.446 323.758 266.946 322.982 268.642C322.206 270.338 321.431 272.231 320.667 274.251C319.191 278.303 318.137 282.054 317.413 284.781C317.06 286.112 316.777 287.206 316.568 288.011C316.47 288.369 316.395 288.659 316.331 288.89C316.312 288.996 316.277 289.097 316.227 289.191C316.228 289.086 316.243 288.98 316.273 288.879C316.319 288.642 316.377 288.346 316.453 287.987C316.615 287.212 316.869 286.1 317.205 284.728C318.08 281.143 319.151 277.609 320.412 274.141C321.159 272.115 321.952 270.216 322.727 268.52C323.503 266.824 324.302 265.331 325.002 264.103C325.703 262.876 326.299 261.898 326.739 261.244L327.248 260.491C327.309 260.403 327.379 260.321 327.457 260.248Z" fill="#455A64"/>
<path d="M283.602 272.022C283.284 271.719 283.012 271.372 282.791 270.992C282.202 270.113 281.689 269.185 281.257 268.219C280.82 267.257 280.464 266.259 280.192 265.238C280.056 264.82 279.976 264.386 279.955 263.947C280.047 263.947 280.534 265.869 281.529 268.098C282.525 270.326 283.683 271.97 283.602 272.022Z" fill="#455A64"/>
<path d="M356.881 265.035C356.615 265.19 356.336 265.319 356.047 265.423C355.271 265.74 354.474 266.003 353.662 266.21C352.452 266.527 351.201 266.656 349.952 266.592C348.406 266.525 346.905 266.047 345.604 265.209C344.312 264.337 343.344 263.063 342.849 261.585C342.514 260.585 342.413 259.521 342.553 258.475C342.694 257.43 343.072 256.43 343.659 255.553C343.785 255.363 343.927 255.183 344.082 255.015C344.186 254.899 344.244 254.841 344.25 254.847C344.256 254.853 344.065 255.114 343.758 255.617C343.333 256.333 343.034 257.116 342.872 257.933C342.628 259.129 342.712 260.369 343.115 261.522C343.599 262.938 344.532 264.157 345.772 264.995C347.032 265.803 348.48 266.272 349.975 266.355C351.197 266.424 352.424 266.316 353.616 266.037C354.426 265.854 355.224 265.624 356.007 265.348C356.289 265.219 356.581 265.115 356.881 265.035Z" fill="#455A64"/>
<path d="M335.654 250.488C335.654 250.488 335.764 250.454 335.955 250.488C336.233 250.554 336.486 250.698 336.684 250.905C336.838 251.061 336.948 251.253 337.005 251.464C337.062 251.675 337.063 251.898 337.008 252.109C336.951 252.367 336.813 252.6 336.615 252.775C336.504 252.871 336.375 252.943 336.236 252.985C336.096 253.028 335.949 253.041 335.804 253.024C335.513 252.994 335.244 252.856 335.052 252.636C334.963 252.532 334.898 252.409 334.861 252.277C334.824 252.145 334.816 252.007 334.837 251.872C334.877 251.658 334.966 251.457 335.098 251.284C335.23 251.111 335.4 250.971 335.596 250.876C335.842 250.751 336.109 250.671 336.383 250.639C336.574 250.639 336.678 250.639 336.684 250.639C336.69 250.639 336.261 250.749 335.7 251.067C335.547 251.157 335.417 251.279 335.317 251.425C335.217 251.572 335.15 251.738 335.121 251.912C335.112 252.014 335.123 252.116 335.154 252.213C335.186 252.31 335.237 252.399 335.304 252.475C335.371 252.552 335.453 252.614 335.545 252.657C335.637 252.701 335.737 252.725 335.839 252.729C336.047 252.744 336.255 252.684 336.422 252.558C336.589 252.432 336.705 252.25 336.748 252.045C336.797 251.874 336.802 251.694 336.764 251.52C336.725 251.346 336.644 251.184 336.528 251.05C336.284 250.798 335.984 250.606 335.654 250.488Z" fill="#455A64"/>
<path d="M357.963 209.076L347.989 213.308C347.68 213.44 347.42 213.666 347.244 213.953C347.069 214.241 346.987 214.575 347.011 214.911L347.619 223.594C347.64 223.857 347.724 224.11 347.864 224.333C348.004 224.555 348.197 224.741 348.424 224.873C348.652 225.005 348.908 225.08 349.171 225.091C349.434 225.102 349.696 225.049 349.934 224.937L367.954 216.121C368.238 215.982 368.476 215.764 368.637 215.493C368.799 215.221 368.877 214.908 368.863 214.593L368.504 206.749C368.493 206.485 368.417 206.228 368.283 206C368.149 205.772 367.961 205.581 367.736 205.443C367.511 205.304 367.255 205.224 366.992 205.207C366.728 205.191 366.464 205.239 366.224 205.348L357.963 209.076Z" fill="#E0E0E0"/>
<path d="M357.963 209.076C357.963 209.076 358.01 209.041 358.114 208.989L358.565 208.769L360.302 207.947L363.098 206.668L364.834 205.869L365.789 205.435C366.124 205.243 366.499 205.134 366.884 205.117C367.31 205.121 367.719 205.283 368.034 205.57C368.349 205.857 368.547 206.25 368.591 206.674C368.632 207.502 368.678 208.358 368.719 209.244C368.759 210.13 368.805 211.05 368.852 211.994L368.921 213.429L368.956 214.164C368.979 214.42 368.979 214.678 368.956 214.934C368.919 215.208 368.817 215.469 368.659 215.695C368.501 215.922 368.291 216.108 368.047 216.237L366.721 216.926L363.827 218.332L357.79 221.29L351.74 224.242L350.293 224.949C350.048 225.089 349.783 225.189 349.506 225.244C349.222 225.29 348.931 225.262 348.661 225.163C348.396 225.074 348.157 224.922 347.963 224.72C347.77 224.519 347.628 224.273 347.549 224.005C347.49 223.747 347.457 223.483 347.451 223.218L347.399 222.471C347.266 220.48 347.138 218.587 347.017 216.81C346.99 216.37 346.961 215.936 346.93 215.507C346.93 215.293 346.901 215.079 346.889 214.865C346.882 214.642 346.919 214.419 346.999 214.211C347.155 213.802 347.459 213.467 347.85 213.273L348.921 212.816L355.52 210.06L357.326 209.331L357.795 209.146C357.848 209.12 357.905 209.102 357.963 209.093L357.807 209.174L357.35 209.383L355.572 210.17L349.002 213.012L347.949 213.47C347.61 213.642 347.35 213.935 347.219 214.292C347.111 214.682 347.093 215.092 347.167 215.49C347.202 215.918 347.231 216.352 347.266 216.792C347.393 218.564 347.532 220.457 347.677 222.448C347.677 222.697 347.711 222.946 347.735 223.2C347.735 223.444 347.764 223.687 347.821 223.924C347.886 224.152 348.005 224.361 348.168 224.533C348.332 224.704 348.534 224.833 348.759 224.908C348.985 224.99 349.228 225.012 349.465 224.972C349.71 224.921 349.944 224.831 350.16 224.706L351.613 223.994L357.656 221.036L363.7 218.083L366.594 216.682L367.983 216.005C368.188 215.896 368.364 215.74 368.497 215.55C368.63 215.36 368.715 215.141 368.748 214.911C368.765 214.672 368.765 214.432 368.748 214.193L368.713 213.464C368.713 212.978 368.672 212.497 368.649 212.023C368.614 211.079 368.574 210.164 368.533 209.273C368.493 208.381 368.458 207.536 368.423 206.714C368.387 206.346 368.216 206.003 367.944 205.751C367.672 205.5 367.318 205.356 366.947 205.348C366.593 205.362 366.247 205.461 365.94 205.638L364.979 206.06L363.242 206.836L360.354 208.057L358.617 208.827L358.148 209.018L357.963 209.076Z" fill="#263238"/>
<path d="M353.593 222.622C353.61 221.717 353.722 220.817 353.928 219.936C354.299 218.199 357.668 212.468 357.668 212.468V209.464L356.088 209.088C356.088 209.088 356.053 207.351 357.373 206.975C357.373 206.975 358.473 205.36 359.277 205.51C359.277 205.51 359.202 204.48 361.546 204.995C363.891 205.51 364.331 206.46 364.331 206.46L363.497 205.452C363.403 205.339 363.343 205.201 363.323 205.055C363.304 204.908 363.325 204.76 363.385 204.625C363.445 204.49 363.542 204.375 363.664 204.292C363.786 204.209 363.929 204.162 364.076 204.156C364.168 204.144 364.262 204.156 364.348 204.19C364.568 204.335 366.768 205.927 366.768 205.927L367.208 209.076L365.471 215.664L360.915 221.672L360.562 225.377L353.616 222.598" fill="#A26760"/>
<path d="M353.622 222.413C353.622 222.413 358.293 249.215 359.873 253.95C361.454 258.685 362.189 260.456 366.872 260.468C372.082 260.468 389.083 239.467 389.083 239.467L377.859 230.413L368.325 243.93L360.886 221.666L353.622 222.413Z" fill="#A26760"/>
<path d="M394.281 217.84C394.281 217.84 395.439 218.836 396.325 222.24C397.448 226.581 395.26 231.594 392.417 235.438C389.998 238.714 385.726 244.983 385.726 244.983L373.627 235.322C373.627 235.322 379.995 226.882 381.373 225.151C384.788 220.914 394.281 217.84 394.281 217.84Z" fill="#F2F2F2"/>
<path d="M358.241 245.51C358.238 245.559 358.229 245.608 358.212 245.655C358.183 245.765 358.143 245.904 358.102 246.072C357.921 246.595 357.659 247.087 357.326 247.53C356.796 248.229 356.136 248.819 355.381 249.267C354.375 249.856 353.257 250.229 352.099 250.361C350.687 250.538 349.254 250.317 347.96 249.724C347.238 249.383 346.606 248.878 346.114 248.248C345.604 247.579 345.227 246.819 345.002 246.008C344.541 244.276 344.435 242.468 344.69 240.694C344.809 239.755 345.026 238.832 345.338 237.938C345.634 236.981 346.247 236.153 347.075 235.588C347.513 235.318 348.018 235.176 348.533 235.177C349.056 235.18 349.558 235.387 349.929 235.756C350.112 235.935 350.257 236.148 350.357 236.384C350.456 236.619 350.507 236.872 350.507 237.128C350.497 237.385 350.423 237.635 350.294 237.856C350.165 238.078 349.984 238.265 349.766 238.402C349.348 238.664 348.85 238.773 348.36 238.708C347.888 238.633 347.449 238.419 347.098 238.095C346.45 237.463 346.031 236.635 345.905 235.739C345.755 234.888 345.726 234.066 345.656 233.273C345.587 232.48 345.541 231.698 345.483 230.957C345.367 229.458 345.263 228.063 345.17 226.789C345.052 225.636 345.002 224.476 345.02 223.316C345.037 222.435 345.247 221.567 345.633 220.775C345.883 220.278 346.234 219.838 346.664 219.484C346.812 219.363 346.975 219.261 347.15 219.183C347.15 219.183 346.988 219.287 346.704 219.536C346.3 219.915 345.981 220.374 345.766 220.885C345.397 221.665 345.199 222.516 345.188 223.38C345.188 224.525 345.254 225.669 345.384 226.807C345.489 228.08 345.604 229.475 345.732 230.969C345.79 231.721 345.853 232.491 345.923 233.284C345.992 234.077 346.027 234.911 346.177 235.721C346.295 236.555 346.686 237.327 347.289 237.915C347.594 238.202 347.98 238.39 348.395 238.454C348.816 238.506 349.243 238.412 349.604 238.187C349.777 238.075 349.92 237.923 350.021 237.743C350.121 237.564 350.177 237.363 350.183 237.157C350.182 236.94 350.137 236.726 350.052 236.528C349.966 236.329 349.842 236.149 349.685 235.999C349.344 235.704 348.913 235.531 348.462 235.509C348.011 235.487 347.565 235.617 347.196 235.878C346.419 236.4 345.846 237.175 345.575 238.072C345.272 238.945 345.057 239.847 344.933 240.763C344.683 242.502 344.781 244.273 345.222 245.973C345.433 246.753 345.791 247.486 346.276 248.132C346.737 248.732 347.332 249.215 348.012 249.545C349.263 250.126 350.648 250.352 352.018 250.199C353.152 250.082 354.248 249.729 355.237 249.163C355.983 248.735 356.641 248.169 357.176 247.496C357.645 246.902 358.006 246.229 358.241 245.51Z" fill="#455A64"/>
<path d="M347.277 218.749L346.206 219.513L346.351 220.219L347.347 219.716L347.277 218.749Z" fill="#263238"/>
<path d="M383.648 221.516C383.548 221.715 383.424 221.899 383.277 222.066L382.177 223.507C381.245 224.717 379.966 226.402 378.588 228.271C377.211 230.141 375.995 231.878 375.115 233.128L374.073 234.604C373.956 234.794 373.818 234.971 373.662 235.131C373.743 234.926 373.848 234.732 373.975 234.552C374.195 234.187 374.554 233.661 374.941 233.018C375.775 231.739 376.962 229.991 378.345 228.109C379.729 226.228 381.037 224.567 382.009 223.386C382.496 222.807 382.901 222.326 383.167 222.008C383.308 221.827 383.47 221.661 383.648 221.516Z" fill="#263238"/>
<path d="M393.124 217.695C392.088 217.843 391.062 218.048 390.05 218.309C389.063 218.668 388.097 219.082 387.156 219.548C387.947 218.819 388.905 218.297 389.946 218.025C390.963 217.659 392.053 217.546 393.124 217.695Z" fill="#263238"/>
<path d="M387.758 167.971C389.888 166.066 394.577 166.877 395.549 168.376C396.427 168.067 397.39 168.109 398.238 168.493C399.085 168.877 399.752 169.573 400.099 170.437L405.008 172.057C405.871 172.261 406.668 172.681 407.323 173.279C407.902 173.927 408.116 175.015 407.503 175.67C409.239 176.312 409.645 179.021 408.197 180.156C408.346 180.37 408.449 180.613 408.5 180.869C408.552 181.125 408.55 181.389 408.496 181.644C408.442 181.899 408.336 182.141 408.185 182.354C408.034 182.567 407.841 182.747 407.619 182.882C408.832 184.694 409.728 186.698 410.27 188.81C410.583 189.674 410.583 190.62 410.27 191.484C409.865 192.3 408.689 192.769 408.006 192.162C408.216 192.537 408.313 192.964 408.287 193.393C408.262 193.821 408.114 194.234 407.862 194.581C408.707 194.685 408.823 196.028 408.18 196.584C407.537 197.14 406.577 197.105 405.726 197.001C404.875 196.897 403.96 196.752 403.213 197.163C403.209 197.269 403.226 197.376 403.264 197.475C403.301 197.575 403.359 197.665 403.433 197.742C404.094 198.357 404.493 199.203 404.546 200.105C404.598 201.006 404.302 201.893 403.717 202.581L403.399 202.946C402.82 203.594 401.552 204.104 400.753 204.422C398.727 205.221 397.598 204.914 395.422 205.001C395.862 206.442 392.064 209.146 388.389 205.719C381.046 207.024 373.553 207.258 366.143 206.413C364.985 206.298 363.572 205.991 363.161 204.879C362.666 204.925 362.167 204.843 361.713 204.64C361.259 204.438 360.864 204.121 360.568 203.722C359.982 202.921 359.536 202.026 359.248 201.076C358.263 200.675 357.427 199.979 356.854 199.084C356.28 198.188 355.999 197.137 356.047 196.075C355.417 195.459 354.921 194.719 354.591 193.902C354.261 193.085 354.105 192.209 354.131 191.328C353.671 191.104 353.262 190.789 352.93 190.401C352.597 190.013 352.347 189.561 352.196 189.072C352.046 188.584 351.997 188.069 352.053 187.561C352.109 187.053 352.268 186.562 352.522 186.118C353.203 183.733 354.273 181.476 355.688 179.438C354.374 179.004 354.056 177.123 354.739 175.93C355.422 174.738 356.736 174.043 357.975 173.424C356.939 173.586 356.192 172.231 356.539 171.241C356.886 170.251 357.871 169.649 358.82 169.204C360.214 168.555 361.682 168.077 363.19 167.78C363.856 166.043 366.328 164.272 368.07 163.658C375.098 161.186 379.879 160.874 387.752 168.017" fill="#263238"/>
<path d="M387.63 209.834L392.962 179.264C393.082 178.592 392.945 177.898 392.579 177.321C392.212 176.745 391.642 176.327 390.982 176.15L377.234 170.275C372.724 169.07 368.788 174.234 367.775 178.79C366.646 183.849 365.46 190.078 365.46 193.985C365.382 196.132 365.996 198.247 367.211 200.019C368.426 201.791 370.178 203.125 372.209 203.826L371.445 208.943C371.445 208.943 370.143 212.873 371.816 212.856C374.05 212.827 387.613 209.846 387.613 209.846" fill="#A26760"/>
<path d="M367.491 184.671C367.549 184.845 368.47 184.671 369.442 185.111C370.415 185.551 370.895 186.379 371.057 186.309C371.132 186.309 371.121 186.014 370.912 185.643C370.627 185.157 370.198 184.771 369.685 184.538C369.182 184.302 368.616 184.233 368.07 184.341C367.665 184.416 367.462 184.596 367.491 184.671Z" fill="#263238"/>
<path d="M378.195 186.483C378.31 186.616 379.086 186.083 380.157 186.124C381.228 186.164 381.992 186.703 382.114 186.604C382.235 186.506 382.056 186.309 381.72 186.026C381.271 185.685 380.726 185.495 380.163 185.481C379.605 185.456 379.055 185.612 378.594 185.927C378.253 186.188 378.137 186.419 378.195 186.483Z" fill="#263238"/>
<path d="M373.917 191.363C373.386 191.099 372.824 190.905 372.244 190.784C371.978 190.714 371.729 190.622 371.717 190.431C371.735 190.146 371.842 189.875 372.024 189.655C372.377 189.041 372.753 188.399 373.147 187.727C374.716 184.972 375.897 182.685 375.787 182.622C375.677 182.558 374.31 184.746 372.742 187.502C372.36 188.179 371.995 188.827 371.648 189.452C371.425 189.75 371.317 190.118 371.341 190.489C371.364 190.59 371.41 190.685 371.477 190.766C371.543 190.846 371.627 190.91 371.723 190.952C371.867 191.017 372.019 191.064 372.174 191.091C372.742 191.253 373.327 191.345 373.917 191.363Z" fill="#263238"/>
<path d="M372.227 203.814C372.227 203.814 376.319 204.891 381.917 202.622C381.917 202.622 379.781 208.144 371.833 206.465L372.227 203.814Z" fill="#7B4B45"/>
<path d="M379.208 179.664C379.271 179.965 380.365 179.994 381.564 180.341C382.762 180.688 383.734 181.18 383.943 180.949C384.035 180.839 383.902 180.544 383.538 180.196C383.051 179.771 382.474 179.462 381.85 179.293C381.226 179.123 380.572 179.098 379.937 179.218C379.457 179.328 379.185 179.519 379.208 179.664Z" fill="#263238"/>
<path d="M369.564 178.674C369.714 178.946 370.484 178.807 371.358 178.934C372.232 179.062 372.956 179.351 373.164 179.125C373.257 179.015 373.164 178.755 372.892 178.477C372.499 178.139 372.014 177.925 371.5 177.86C370.985 177.795 370.463 177.883 369.998 178.112C369.645 178.309 369.5 178.541 369.564 178.674Z" fill="#263238"/>
<path d="M363.897 182.101C364.065 180.883 364.647 179.761 365.546 178.923C366.094 178.545 366.621 178.139 367.127 177.707C368.122 176.659 368.18 175.068 368.701 173.725C369.048 172.859 369.597 172.088 370.302 171.477C371.007 170.866 371.847 170.432 372.753 170.211C374.258 169.852 375.891 170.107 377.326 169.539C378.391 169.117 379.254 168.283 380.342 167.924C382.455 167.23 384.672 168.503 386.449 169.869C386.658 171.421 385.552 172.619 384.493 173.771C383.959 174.347 383.306 174.801 382.579 175.101C381.853 175.401 381.07 175.539 380.284 175.507C379.075 175.45 377.697 175.015 376.753 175.78C375.81 176.544 375.931 178.217 375.08 179.172C373.871 180.538 371.549 179.704 369.871 180.445C368.585 181.024 367.914 182.408 367.161 183.6C366.409 184.793 365.216 185.991 363.821 185.771C363.705 184.549 363.731 183.317 363.897 182.101Z" fill="#263238"/>
<path d="M383.127 172.26C386.663 172.604 390.099 173.63 393.245 175.282C394.224 175.696 395.047 176.409 395.595 177.319C395.932 178.191 396.014 179.141 395.833 180.057C395.474 182.952 393.917 186.344 392.516 188.891L388.666 190.628C385.963 189.661 387.775 185.007 388.18 182.622C387.265 182.071 386.521 181.274 386.034 180.323C385.548 179.372 385.336 178.303 385.425 177.238C384.695 176.632 384.11 175.871 383.712 175.009C383.315 174.148 383.115 173.209 383.127 172.26Z" fill="#263238"/>
<path d="M388.834 189.626C389.129 187.988 391.19 187.889 392.516 188.903C393.239 189.481 393.726 190.448 393.43 192.19C392.637 196.821 388.134 195.085 388.151 194.946C388.169 194.807 388.487 191.554 388.834 189.626Z" fill="#A26760"/>
<path d="M389.876 193.441C389.876 193.441 389.946 193.51 390.073 193.597C390.246 193.704 390.451 193.745 390.652 193.713C391.173 193.615 391.717 192.908 391.885 192.075C391.966 191.678 391.956 191.269 391.856 190.876C391.838 190.724 391.783 190.578 391.695 190.451C391.607 190.325 391.489 190.223 391.352 190.153C391.264 190.112 391.164 190.104 391.07 190.129C390.975 190.154 390.893 190.212 390.837 190.292C390.756 190.413 390.768 190.506 390.739 190.512C390.71 190.518 390.652 190.419 390.739 190.234C390.782 190.122 390.864 190.029 390.97 189.973C391.042 189.935 391.12 189.911 391.2 189.903C391.281 189.896 391.362 189.904 391.439 189.927C391.628 189.993 391.796 190.106 391.928 190.256C392.06 190.407 392.151 190.588 392.192 190.784C392.321 191.22 392.343 191.681 392.255 192.127C392.064 193.059 391.433 193.863 390.733 193.933C390.601 193.948 390.468 193.933 390.343 193.89C390.218 193.847 390.104 193.777 390.009 193.684C389.876 193.551 389.876 193.447 389.876 193.441Z" fill="#7B4B45"/>
<path d="M390.166 195.461C390.166 195.461 390.166 195.461 390.166 195.525C390.169 195.588 390.183 195.651 390.206 195.71C390.294 195.955 390.467 196.16 390.692 196.289C391.039 196.489 391.423 196.615 391.821 196.659C392.072 196.695 392.326 196.706 392.58 196.694C392.868 196.688 393.153 196.635 393.425 196.538L393.373 196.503C393.386 196.909 393.505 197.305 393.72 197.651C393.934 197.996 394.236 198.279 394.594 198.471C394.953 198.663 395.356 198.757 395.762 198.744C396.168 198.731 396.564 198.611 396.909 198.396H396.834C396.894 198.51 396.976 198.612 397.075 198.694C397.175 198.777 397.29 198.839 397.413 198.876C397.663 198.949 397.928 198.949 398.177 198.876C398.44 198.813 398.674 198.664 398.843 198.454C399.009 198.234 399.12 197.978 399.167 197.707C399.247 197.146 399.128 196.575 398.831 196.092C398.52 195.603 398.151 195.154 397.731 194.755V194.859C397.939 194.758 398.123 194.615 398.272 194.439C398.42 194.262 398.53 194.056 398.594 193.834C398.733 193.38 398.733 192.894 398.594 192.439C398.448 191.98 398.214 191.553 397.905 191.183C397.594 190.809 397.26 190.455 396.904 190.124V190.205C397.093 190.044 397.246 189.845 397.352 189.62C397.458 189.396 397.514 189.151 397.517 188.903C397.543 188.394 397.414 187.889 397.147 187.455C396.593 186.69 395.875 186.057 395.046 185.603L395.074 185.69C395.249 185.216 395.306 184.707 395.242 184.206C395.177 183.705 394.992 183.227 394.702 182.813C394.413 182.399 394.028 182.061 393.579 181.828C393.131 181.595 392.633 181.474 392.128 181.476L392.192 181.568C392.312 181.174 392.341 180.757 392.276 180.35C392.211 179.942 392.053 179.555 391.815 179.218C391.608 178.897 391.335 178.625 391.013 178.419C390.692 178.213 390.329 178.079 389.951 178.026L390.004 178.095C390.037 177.696 389.979 177.294 389.835 176.92C389.69 176.546 389.463 176.209 389.17 175.936C388.924 175.684 388.629 175.485 388.304 175.35C387.979 175.216 387.629 175.149 387.277 175.154L387.323 175.206C387.344 174.778 387.261 174.351 387.08 173.962C386.931 173.617 386.723 173.299 386.467 173.024C386.069 172.574 385.534 172.269 384.944 172.156H384.771H384.603C384.503 172.147 384.402 172.147 384.302 172.156C384.147 172.167 383.994 172.192 383.844 172.231L383.572 172.312C383.509 172.312 383.48 172.312 383.48 172.347H383.572L383.85 172.277C383.966 172.243 384.128 172.243 384.308 172.214C384.406 172.208 384.504 172.208 384.603 172.214H384.765L384.933 172.248C385.509 172.365 386.031 172.671 386.415 173.117C386.65 173.378 386.841 173.675 386.982 173.997C387.155 174.371 387.233 174.783 387.208 175.195V175.247H387.266C387.602 175.242 387.936 175.305 388.247 175.432C388.559 175.56 388.841 175.749 389.077 175.988C389.358 176.249 389.575 176.57 389.714 176.926C389.852 177.283 389.908 177.667 389.876 178.049V178.107H389.94C390.301 178.159 390.647 178.29 390.953 178.49C391.259 178.69 391.518 178.954 391.711 179.264C391.937 179.584 392.087 179.951 392.149 180.337C392.211 180.723 392.184 181.119 392.07 181.493L392.035 181.586H392.134C392.619 181.584 393.097 181.701 393.527 181.925C393.957 182.15 394.326 182.475 394.602 182.874C394.879 183.273 395.054 183.733 395.113 184.214C395.172 184.695 395.113 185.184 394.941 185.638V185.696H394.993C395.803 186.137 396.504 186.752 397.048 187.496C397.301 187.905 397.424 188.381 397.402 188.862C397.395 189.092 397.34 189.318 397.24 189.526C397.141 189.733 396.998 189.917 396.823 190.066L396.759 190.118L396.817 190.176C397.555 190.77 398.125 191.546 398.472 192.428C398.599 192.857 398.599 193.313 398.472 193.742C398.414 193.946 398.313 194.136 398.176 194.298C398.04 194.461 397.87 194.593 397.679 194.685L397.593 194.726L397.662 194.795C398.074 195.187 398.437 195.626 398.744 196.104C399.025 196.563 399.14 197.104 399.069 197.638C399.041 197.885 398.941 198.119 398.781 198.311C398.622 198.502 398.41 198.642 398.171 198.714C397.951 198.788 397.712 198.786 397.494 198.707C397.275 198.628 397.09 198.478 396.967 198.28V198.228L396.915 198.257C396.554 198.471 396.14 198.58 395.72 198.573C395.3 198.565 394.89 198.442 394.536 198.216C394.242 198.02 393.996 197.759 393.819 197.453C393.641 197.147 393.536 196.804 393.512 196.451V196.399H393.459C393.195 196.492 392.918 196.545 392.637 196.555C392.391 196.579 392.143 196.579 391.896 196.555C391.504 196.517 391.124 196.398 390.779 196.208C390.563 196.093 390.39 195.91 390.287 195.687C390.177 195.554 390.177 195.461 390.166 195.461Z" fill="#455A64"/>
<path d="M408.545 192.451C408.621 192.368 408.691 192.279 408.753 192.185C408.926 191.911 409.044 191.606 409.1 191.287C409.196 190.774 409.12 190.243 408.886 189.777C408.726 189.468 408.503 189.196 408.232 188.978C407.961 188.76 407.648 188.6 407.312 188.509L407.341 188.573C407.586 187.795 407.528 186.953 407.179 186.217C406.99 185.804 406.716 185.437 406.374 185.14C405.993 184.853 405.586 184.603 405.158 184.393C404.945 184.28 404.75 184.136 404.579 183.965C404.411 183.787 404.286 183.573 404.215 183.34C404.058 182.871 404.047 182.332 403.839 181.817C403.615 181.293 403.24 180.847 402.762 180.537C402.283 180.228 401.723 180.069 401.153 180.081L401.222 180.173C401.365 179.614 401.379 179.03 401.261 178.465C401.143 177.899 400.897 177.369 400.542 176.914C400.187 176.459 399.732 176.091 399.213 175.839C398.694 175.588 398.123 175.458 397.546 175.461L397.616 175.548C397.753 174.931 397.71 174.288 397.493 173.695C397.277 173.102 396.895 172.582 396.393 172.199C395.891 171.816 395.289 171.584 394.66 171.531C394.03 171.478 393.399 171.607 392.84 171.901H392.915C392.498 171.409 391.978 171.014 391.393 170.743C390.877 170.479 390.328 170.284 389.76 170.165C388.844 169.955 387.897 169.912 386.965 170.037C386.362 170.108 385.775 170.278 385.228 170.541C385.085 170.606 384.947 170.684 384.817 170.772L384.678 170.865C384.678 170.865 384.869 170.749 385.257 170.57C385.809 170.328 386.394 170.172 386.993 170.107C387.916 169.996 388.85 170.047 389.755 170.257C390.313 170.382 390.854 170.576 391.364 170.836C391.933 171.113 392.436 171.507 392.84 171.994L392.875 172.034H392.915C393.429 171.778 394 171.661 394.573 171.694C395.146 171.728 395.7 171.911 396.18 172.225C396.7 172.589 397.101 173.097 397.334 173.687C397.568 174.276 397.624 174.921 397.494 175.542V175.629H397.581C398.137 175.625 398.686 175.748 399.186 175.99C399.687 176.232 400.125 176.585 400.467 177.023C400.809 177.462 401.045 177.972 401.158 178.517C401.271 179.061 401.257 179.624 401.118 180.162V180.254H401.216C401.757 180.242 402.29 180.391 402.746 180.683C403.201 180.975 403.56 181.396 403.775 181.892C403.972 182.373 403.983 182.905 404.151 183.403C404.226 183.656 404.361 183.886 404.545 184.075C404.717 184.251 404.911 184.402 405.124 184.526C405.546 184.729 405.948 184.974 406.322 185.256C406.655 185.539 406.923 185.89 407.109 186.286C407.45 186.998 407.512 187.812 407.283 188.567V188.613H407.335C407.659 188.698 407.963 188.85 408.226 189.058C408.489 189.266 408.706 189.527 408.863 189.823C409.098 190.275 409.182 190.79 409.1 191.293C409.049 191.608 408.939 191.91 408.776 192.185C408.614 192.358 408.539 192.445 408.545 192.451Z" fill="#455A64"/>
<path d="M363.677 188.729C363.712 188.673 363.736 188.61 363.746 188.544C363.756 188.478 363.752 188.411 363.735 188.347C363.696 188.19 363.616 188.046 363.503 187.93C363.348 187.776 363.163 187.656 362.959 187.577C362.709 187.483 362.475 187.352 362.264 187.189C362.031 186.975 361.874 186.69 361.818 186.379C361.752 186.021 361.752 185.654 361.818 185.296C361.876 184.914 361.981 184.509 362.033 184.075C362.042 183.123 361.945 182.174 361.743 181.244C361.676 180.727 361.713 180.201 361.853 179.698C361.921 179.435 362.045 179.189 362.217 178.979C362.389 178.768 362.604 178.597 362.849 178.477C363.399 178.284 363.97 178.16 364.551 178.107C364.859 178.056 365.156 177.955 365.431 177.806C365.71 177.645 365.941 177.413 366.102 177.134C366.396 176.564 366.631 175.964 366.803 175.345C366.899 175.042 367.041 174.755 367.225 174.494C367.413 174.24 367.68 174.055 367.983 173.968C368.42 173.912 368.861 173.912 369.297 173.968C369.525 173.974 369.752 173.943 369.969 173.875C370.192 173.802 370.392 173.67 370.548 173.493C370.809 173.139 371.018 172.749 371.167 172.335C371.405 171.786 371.807 171.325 372.318 171.014C372.829 170.703 373.424 170.558 374.021 170.599C374.751 170.664 375.431 171.001 375.925 171.542L375.978 171.606L376.024 171.531C376.353 170.986 376.795 170.518 377.321 170.159C377.846 169.799 378.442 169.557 379.069 169.447C379.591 169.355 380.126 169.367 380.643 169.481C381.085 169.574 381.506 169.745 381.888 169.985C382.425 170.325 382.851 170.814 383.115 171.392C383.19 171.543 383.252 171.699 383.3 171.861L383.341 171.982V172.023C383.341 172.023 383.341 172.023 383.341 171.976L383.306 171.855C383.265 171.69 383.209 171.529 383.138 171.374C382.882 170.781 382.457 170.276 381.917 169.921C381.53 169.675 381.103 169.499 380.655 169.4C380.125 169.276 379.577 169.256 379.04 169.343C378.397 169.454 377.785 169.701 377.245 170.067C376.705 170.433 376.249 170.911 375.908 171.467H376.007C375.493 170.899 374.784 170.545 374.021 170.477C373.613 170.445 373.202 170.497 372.814 170.63C372.427 170.764 372.071 170.976 371.769 171.253C371.458 171.535 371.208 171.877 371.034 172.26C370.894 172.654 370.699 173.026 370.455 173.366C370.309 173.522 370.127 173.641 369.926 173.714C369.725 173.788 369.51 173.813 369.297 173.788C368.846 173.742 368.391 173.754 367.943 173.823C367.61 173.921 367.317 174.124 367.109 174.402C366.917 174.672 366.769 174.971 366.669 175.288C366.502 175.888 366.273 176.47 365.986 177.024C365.834 177.283 365.619 177.5 365.361 177.655C365.099 177.794 364.815 177.888 364.522 177.933C363.929 177.991 363.346 178.122 362.785 178.321C362.513 178.454 362.278 178.653 362.102 178.9C361.932 179.128 361.805 179.385 361.726 179.658C361.583 180.176 361.547 180.718 361.622 181.25C361.825 182.172 361.926 183.113 361.923 184.057C361.882 184.486 361.778 184.885 361.72 185.279C361.647 185.646 361.647 186.023 361.72 186.39C361.782 186.716 361.949 187.013 362.195 187.235C362.414 187.399 362.656 187.529 362.913 187.623C363.113 187.695 363.296 187.807 363.451 187.953C363.561 188.064 363.641 188.202 363.682 188.353C363.722 188.475 363.72 188.608 363.677 188.729Z" fill="#455A64"/>
<path d="M355.405 180.474C355.427 180.449 355.446 180.422 355.462 180.393L355.619 180.144L356.198 179.183C356.458 178.767 356.777 178.246 357.164 177.684C357.592 177.031 358.194 176.51 358.901 176.179C359.3 176.017 359.752 175.93 360.215 175.785C360.452 175.712 360.679 175.611 360.892 175.484C361.119 175.339 361.305 175.14 361.436 174.905C361.714 174.448 361.784 173.898 362.015 173.418C362.125 173.176 362.307 172.974 362.536 172.839C362.784 172.706 363.052 172.616 363.329 172.573C363.624 172.526 363.912 172.45 364.192 172.347C364.485 172.235 364.734 172.032 364.904 171.768C365.172 171.217 365.367 170.633 365.483 170.031C365.563 169.732 365.701 169.451 365.888 169.204C365.993 169.083 366.12 168.984 366.263 168.912C366.406 168.841 366.562 168.798 366.721 168.787C367.347 168.729 367.983 169.018 368.684 168.984C369.033 168.964 369.366 168.832 369.633 168.607C369.886 168.388 370.113 168.142 370.31 167.872C370.489 167.611 370.683 167.36 370.889 167.12C371.094 166.889 371.352 166.714 371.642 166.61C372.237 166.482 372.858 166.556 373.407 166.819C373.953 167.063 374.546 167.184 375.144 167.172C375.712 167.095 376.262 166.914 376.765 166.639C377.234 166.401 377.724 166.207 378.229 166.06C379.159 165.857 380.128 165.934 381.014 166.28C381.748 166.558 382.409 166.999 382.947 167.571C383.35 168.006 383.684 168.5 383.937 169.036C384.091 169.377 384.215 169.732 384.308 170.095C384.342 170.217 384.365 170.309 384.389 170.379L384.417 170.477V170.379C384.417 170.303 384.383 170.211 384.354 170.089C384.27 169.72 384.152 169.36 384.001 169.013C383.758 168.465 383.43 167.959 383.028 167.513C382.483 166.929 381.812 166.475 381.066 166.188C380.191 165.825 379.23 165.722 378.299 165.892C377.784 166.046 377.285 166.252 376.811 166.506C376.318 166.769 375.784 166.943 375.231 167.021C374.645 167.027 374.064 166.907 373.529 166.668C373.237 166.56 372.937 166.473 372.632 166.408C372.313 166.342 371.982 166.358 371.671 166.454C371.359 166.564 371.081 166.752 370.86 166.998C370.624 167.24 370.401 167.495 370.195 167.762C370.006 168.024 369.789 168.262 369.546 168.474C369.298 168.678 368.993 168.799 368.672 168.822C368.024 168.856 367.387 168.567 366.704 168.625C366.362 168.655 366.044 168.817 365.818 169.076C365.613 169.335 365.464 169.635 365.384 169.956C365.269 170.558 365.074 171.142 364.805 171.693C364.652 171.938 364.425 172.128 364.157 172.237C363.884 172.334 363.603 172.407 363.318 172.457C363.027 172.502 362.747 172.598 362.49 172.741C362.235 172.889 362.032 173.114 361.911 173.383C361.668 173.892 361.604 174.437 361.332 174.871C361.062 175.278 360.649 175.57 360.174 175.687C359.723 175.832 359.266 175.924 358.855 176.092C358.127 176.43 357.51 176.968 357.078 177.644C356.672 178.222 356.383 178.743 356.128 179.16C355.873 179.577 355.688 179.907 355.549 180.138C355.486 180.243 355.439 180.329 355.405 180.393C355.37 180.457 355.399 180.474 355.405 180.474Z" fill="#455A64"/>
<path d="M360.933 176.138C360.933 176.138 360.904 176.138 360.852 176.138C360.766 176.121 360.677 176.121 360.591 176.138C360.437 176.208 360.303 176.316 360.202 176.452C360.101 176.587 360.035 176.746 360.012 176.914C359.978 177.15 359.978 177.39 360.012 177.626C360.051 177.899 360.051 178.175 360.012 178.448C359.944 178.756 359.799 179.04 359.59 179.276C359.376 179.536 359.115 179.791 358.889 180.104C358.763 180.265 358.674 180.453 358.631 180.654C358.588 180.854 358.591 181.062 358.64 181.261C358.745 181.678 358.999 182.043 359.092 182.465C359.17 182.909 359.072 183.366 358.82 183.739C358.594 184.144 358.287 184.526 358.056 184.984C357.932 185.214 357.852 185.465 357.818 185.725C357.794 185.992 357.826 186.262 357.911 186.518C358.113 187.018 358.361 187.499 358.652 187.953C358.95 188.405 359.068 188.953 358.982 189.487C358.795 190.02 358.547 190.529 358.241 191.004C358.099 191.264 358.007 191.549 357.969 191.843C357.944 192.139 357.987 192.436 358.096 192.711C358.324 193.222 358.612 193.704 358.953 194.147C359.272 194.567 359.501 195.047 359.625 195.56C359.7 196.07 359.809 196.574 359.949 197.07C360.031 197.314 360.17 197.534 360.354 197.713C360.54 197.88 360.753 198.013 360.985 198.107C361.198 198.195 361.405 198.297 361.604 198.413C361.792 198.529 361.96 198.674 362.102 198.842C362.369 199.171 362.589 199.535 362.756 199.924C362.936 200.3 363.098 200.665 363.283 200.995C363.62 201.605 364.146 202.089 364.782 202.373C365.255 202.593 365.772 202.702 366.293 202.691C366.62 202.686 366.945 202.63 367.254 202.523C367.361 202.486 367.466 202.442 367.567 202.39C367.16 202.546 366.729 202.63 366.293 202.639C365.783 202.634 365.279 202.52 364.817 202.303C364.202 202.017 363.697 201.54 363.376 200.943C363.19 200.619 363.034 200.254 362.86 199.878C362.689 199.477 362.466 199.102 362.195 198.761C362.043 198.585 361.865 198.432 361.668 198.309C361.465 198.182 361.245 198.095 361.037 197.991C360.824 197.902 360.628 197.777 360.458 197.62C360.293 197.456 360.165 197.259 360.082 197.041C359.947 196.55 359.843 196.052 359.769 195.548C359.643 195.017 359.409 194.519 359.08 194.083C358.747 193.649 358.465 193.177 358.241 192.677C358.14 192.423 358.101 192.15 358.125 191.878C358.16 191.6 358.246 191.331 358.38 191.085C358.69 190.601 358.943 190.082 359.133 189.539C359.202 189.256 359.202 188.96 359.133 188.677C359.058 188.405 358.949 188.145 358.808 187.901C358.524 187.454 358.278 186.983 358.073 186.494C357.996 186.258 357.966 186.008 357.986 185.759C358.019 185.515 358.093 185.278 358.206 185.059C358.426 184.619 358.733 184.237 358.965 183.814C359.231 183.414 359.33 182.926 359.242 182.454C359.138 182.002 358.884 181.644 358.785 181.25C358.737 181.066 358.732 180.873 358.77 180.686C358.808 180.499 358.889 180.324 359.005 180.173C359.219 179.866 359.48 179.594 359.694 179.345C359.913 179.097 360.063 178.796 360.128 178.471C360.156 178.189 360.142 177.904 360.088 177.626C360.04 177.4 360.028 177.167 360.053 176.937C360.071 176.779 360.126 176.628 360.215 176.496C360.304 176.364 360.423 176.255 360.562 176.179C360.678 176.125 360.808 176.111 360.933 176.138Z" fill="#455A64"/>
<path d="M408.441 192.283C408.566 192.297 408.692 192.297 408.817 192.283C409.18 192.25 409.532 192.144 409.853 191.971C410.376 191.697 410.786 191.248 411.011 190.703C411.155 190.341 411.218 189.951 411.195 189.562C411.172 189.173 411.064 188.794 410.878 188.451C410.638 188.069 410.361 187.712 410.05 187.386C409.71 187.045 409.452 186.632 409.297 186.176C409.194 185.671 409.281 185.145 409.54 184.7C409.778 184.219 410.119 183.756 410.339 183.224C410.593 182.634 410.722 181.998 410.717 181.356C410.712 180.714 410.574 180.08 410.311 179.495C410.048 178.909 409.666 178.384 409.19 177.954C408.713 177.524 408.153 177.197 407.543 176.995L407.572 177.105C407.822 176.828 408 176.494 408.093 176.133C408.185 175.766 408.205 175.384 408.151 175.01C408.096 174.631 407.977 174.265 407.798 173.927C407.612 173.591 407.376 173.284 407.098 173.018C406.253 172.268 405.247 171.723 404.157 171.426C403.144 171.113 402.091 170.947 401.031 170.934L401.1 171.01C401.135 170.565 401.08 170.117 400.938 169.694C400.797 169.271 400.572 168.88 400.277 168.545C399.981 168.211 399.622 167.939 399.219 167.745C398.817 167.552 398.38 167.442 397.934 167.421C397.401 167.419 396.87 167.497 396.36 167.652C396.117 167.709 395.868 167.738 395.619 167.739C395.379 167.732 395.143 167.679 394.924 167.583C394.511 167.381 394.122 167.133 393.766 166.842C393.424 166.57 393.048 166.343 392.649 166.165C392.279 166.013 391.889 165.916 391.491 165.875C390.897 165.813 390.296 165.885 389.733 166.085C389.171 166.286 388.66 166.609 388.238 167.033C388.017 167.259 387.823 167.509 387.659 167.78C387.598 167.873 387.546 167.972 387.503 168.075C387.503 168.075 387.561 167.976 387.677 167.797C387.84 167.532 388.035 167.287 388.255 167.068C388.614 166.714 389.036 166.431 389.5 166.234C389.99 166.028 390.517 165.922 391.048 165.922C391.58 165.922 392.107 166.028 392.597 166.234C392.991 166.407 393.36 166.631 393.697 166.9C394.061 167.201 394.459 167.457 394.883 167.664C395.116 167.765 395.365 167.82 395.619 167.826C395.878 167.831 396.136 167.804 396.388 167.745C396.89 167.594 397.411 167.518 397.934 167.519C398.482 167.551 399.014 167.72 399.48 168.011C399.974 168.323 400.374 168.763 400.636 169.286C400.899 169.808 401.013 170.392 400.967 170.975V171.102H401.043C402.089 171.116 403.128 171.279 404.128 171.589C405.201 171.877 406.192 172.412 407.022 173.152C407.274 173.4 407.487 173.685 407.653 173.997C407.824 174.32 407.938 174.671 407.989 175.033C408.041 175.388 408.024 175.75 407.937 176.098C407.852 176.438 407.685 176.752 407.451 177.013L407.381 177.094L407.48 177.128C408.073 177.321 408.62 177.636 409.085 178.052C409.55 178.469 409.923 178.978 410.179 179.547C410.436 180.116 410.571 180.732 410.576 181.357C410.58 181.981 410.454 182.599 410.206 183.172C409.986 183.693 409.656 184.156 409.419 184.648C409.146 185.118 409.059 185.674 409.176 186.205C409.336 186.675 409.604 187.101 409.957 187.45C410.264 187.772 410.539 188.123 410.779 188.497C410.963 188.827 411.071 189.193 411.096 189.569C411.121 189.946 411.062 190.323 410.924 190.674C410.714 191.206 410.325 191.648 409.824 191.924C409.515 192.104 409.172 192.216 408.817 192.254C408.574 192.289 408.441 192.277 408.441 192.283Z" fill="#263238"/>
<path d="M359.642 172.735C359.644 172.706 359.644 172.677 359.642 172.648L359.694 172.387C359.746 172.15 359.816 171.809 359.902 171.392C359.989 170.975 360.122 170.431 360.308 169.829C360.509 169.149 360.793 168.495 361.153 167.884C361.587 167.137 362.18 166.495 362.889 166.002C363.284 165.742 363.718 165.547 364.174 165.424C364.668 165.306 365.169 165.221 365.674 165.169C366.217 165.108 366.744 164.943 367.225 164.683C367.714 164.373 368.162 164.001 368.557 163.577C368.968 163.178 369.361 162.755 369.813 162.385C370.269 162.007 370.791 161.716 371.352 161.528C372.475 161.177 373.657 161.063 374.826 161.192C375.917 161.278 377 161.445 378.067 161.69C379.875 162.092 381.604 162.79 383.185 163.756C384.246 164.419 385.197 165.243 386.004 166.199C386.143 166.367 386.27 166.518 386.374 166.657C386.478 166.796 386.554 166.911 386.617 167.01L386.773 167.224C386.808 167.27 386.826 167.299 386.831 167.293L386.785 167.218L386.646 166.992C386.577 166.894 386.501 166.772 386.409 166.628C386.316 166.483 386.183 166.338 386.05 166.165C385.256 165.188 384.307 164.347 383.242 163.675C381.658 162.687 379.918 161.973 378.096 161.563C377.024 161.311 375.935 161.14 374.837 161.053C373.653 160.92 372.454 161.037 371.318 161.395C370.746 161.597 370.216 161.903 369.755 162.298C369.297 162.68 368.898 163.102 368.493 163.502C368.106 163.898 367.67 164.245 367.196 164.532C366.733 164.788 366.223 164.949 365.697 165.007C365.187 165.068 364.681 165.157 364.18 165.273C363.699 165.401 363.243 165.611 362.831 165.892C362.12 166.402 361.527 167.059 361.095 167.82C360.738 168.442 360.458 169.105 360.261 169.794C360.107 170.312 359.979 170.837 359.879 171.369C359.792 171.803 359.735 172.144 359.694 172.37L359.654 172.636C359.642 172.706 359.636 172.735 359.642 172.735Z" fill="#263238"/>
<path d="M376.857 193.319L373.28 194.199L372.939 194.28C373.017 194.893 373.171 195.494 373.396 196.069C373.502 196.315 373.661 196.535 373.861 196.714C374.061 196.893 374.297 197.026 374.554 197.105C374.983 197.183 375.427 197.125 375.821 196.937C376.128 196.778 376.397 196.557 376.614 196.288C376.83 196.019 376.988 195.708 377.077 195.374C377.182 195.035 377.216 194.677 377.178 194.324C377.14 193.971 377.031 193.629 376.857 193.319Z" fill="#7B4B45"/>
<path d="M374.363 197.094C374.822 197.152 375.289 197.09 375.717 196.914C376.16 196.7 376.519 196.343 376.736 195.901C376.997 195.362 377.076 194.752 376.962 194.164C376.931 194.01 376.89 193.857 376.84 193.707C376.822 193.644 376.795 193.583 376.759 193.528C376.759 193.499 376.759 193.499 376.69 193.528L375.815 193.753L374.316 194.124C373.859 194.266 373.387 194.357 372.91 194.396C373.34 194.189 373.793 194.03 374.258 193.921L375.746 193.481C376.035 193.4 376.325 193.319 376.643 193.232C376.709 193.221 376.776 193.227 376.838 193.251C376.9 193.274 376.955 193.314 376.996 193.366C377.051 193.448 377.094 193.538 377.124 193.632C377.178 193.797 377.222 193.965 377.257 194.135C377.39 194.792 377.294 195.474 376.985 196.069C376.734 196.551 376.325 196.933 375.827 197.151C375.487 197.286 375.118 197.328 374.756 197.273C374.478 197.186 374.357 197.111 374.363 197.094Z" fill="#263238"/>
<path d="M393.083 193.319C393.054 192.781 392.821 192.274 392.432 191.901C392.043 191.528 391.527 191.317 390.988 191.311C390.782 191.301 390.578 191.35 390.399 191.453C390.221 191.555 390.075 191.707 389.98 191.889C389.879 192.085 389.841 192.307 389.872 192.525C389.903 192.743 390.002 192.946 390.154 193.105C390.438 193.348 390.849 193.325 391.115 193.591C391.236 193.746 391.319 193.925 391.361 194.117C391.402 194.308 391.399 194.507 391.352 194.697C391.289 195.091 391.15 195.461 391.121 195.855C391.091 196.046 391.117 196.241 391.193 196.418C391.27 196.595 391.396 196.747 391.555 196.856C391.708 196.907 391.873 196.904 392.024 196.85C392.175 196.795 392.303 196.691 392.389 196.555C392.577 196.259 392.713 195.932 392.788 195.588C393.041 194.86 393.141 194.088 393.083 193.319Z" fill="#455A64"/>
<path d="M370.982 203.079C371.01 203.24 371.025 203.402 371.028 203.565C371.028 203.907 371.063 204.376 371.092 204.96C371.132 206.199 371.196 207.947 371.271 210.095C371.306 211.177 371.341 212.364 371.381 213.638C371.382 214.288 371.452 214.936 371.59 215.571C371.741 216.226 372.069 216.827 372.539 217.308C373.07 217.811 373.707 218.19 374.403 218.416C375.099 218.642 375.837 218.711 376.562 218.616C378.141 218.394 379.65 217.822 380.979 216.943C383.571 215.242 385.701 212.925 387.179 210.199C388.398 207.977 389.348 205.618 390.009 203.172C390.588 201.093 390.947 199.374 391.208 198.188C391.329 197.609 391.422 197.157 391.497 196.821C391.524 196.66 391.565 196.501 391.619 196.347C391.608 196.51 391.587 196.673 391.555 196.833C391.497 197.175 391.422 197.632 391.323 198.211C391.098 199.403 390.773 201.105 390.212 203.23C389.58 205.704 388.643 208.09 387.422 210.332C385.936 213.112 383.774 215.473 381.135 217.198C379.771 218.111 378.217 218.705 376.591 218.934C375.823 219.03 375.043 218.954 374.308 218.71C373.573 218.467 372.902 218.063 372.342 217.528C371.837 217.004 371.487 216.351 371.329 215.64C371.194 214.985 371.128 214.318 371.132 213.649C371.104 212.381 371.08 211.189 371.057 210.106C371.022 207.959 370.994 206.211 370.97 204.966C370.97 204.387 370.97 203.918 370.97 203.571C370.959 203.407 370.963 203.242 370.982 203.079Z" fill="#455A64"/>
<path d="M365.297 234.726C365.38 234.496 365.485 234.275 365.61 234.066L366.548 232.329C367.37 230.801 368.452 228.804 369.645 226.587C370.837 224.37 371.879 222.35 372.684 220.798L373.61 219.062C373.715 218.842 373.841 218.632 373.986 218.436C373.919 218.671 373.827 218.898 373.714 219.114C373.529 219.542 373.24 220.156 372.875 220.908C372.151 222.413 371.109 224.474 369.911 226.726C368.713 228.978 367.596 230.986 366.733 232.428C366.31 233.151 365.963 233.73 365.714 234.124C365.601 234.341 365.461 234.544 365.297 234.726Z" fill="#455A64"/>
<path d="M93.3769 135.824C85.8873 144.91 96.7477 155.521 83.6733 155.66C70.599 155.8 66.3805 154.104 66.4902 168.396C66.5999 182.687 54.1937 173.382 55.6397 187.793C57.0858 202.203 111.248 212.914 111.009 197.177C110.769 181.44 102.801 179.675 113.323 175.576C123.844 171.477 133.119 147.173 123.894 141.529C127.444 131.715 103.838 123.119 93.3769 135.824Z" fill="#263238"/>
<path d="M122.737 181.201C123.445 181.909 124.343 182.746 125.17 183.514C125.998 184.282 126.886 185.07 127.773 185.818C129.558 187.304 131.333 188.81 133.208 190.166C136.872 192.905 140.789 195.286 144.906 197.277C145.904 197.716 146.961 198.194 147.968 198.573C148.975 198.952 150.052 199.301 151.139 199.64C153.343 200.299 155.657 200.877 157.981 201.426C162.628 202.513 167.395 203.51 172.122 204.517L171.733 208.945C166.738 209.02 161.742 208.794 156.774 208.267C154.281 208.008 151.788 207.668 149.245 207.16C147.968 206.901 146.692 206.621 145.365 206.222C144.039 205.824 142.852 205.355 141.595 204.906C136.774 202.944 132.198 200.423 127.963 197.397C125.85 195.935 123.813 194.368 121.859 192.699C120.862 191.872 119.925 191.024 118.987 190.146C118.05 189.269 117.152 188.411 116.165 187.364L122.737 181.201Z" fill="#FFC3BD"/>
<path d="M121.64 178.757C130.725 184.561 129.987 188.132 129.987 188.132L124.273 196.399C124.273 196.399 109.712 190.555 108.795 185.988C107.838 181.231 117.232 175.945 121.64 178.757Z" fill="#BD6AF0"/>
<path opacity="0.3" d="M121.64 178.757C130.725 184.561 129.987 188.132 129.987 188.132L124.273 196.399C124.273 196.399 109.712 190.555 108.795 185.988C107.838 181.231 117.232 175.945 121.64 178.757Z" fill="black"/>
<path d="M130.486 187.314C130.57 187.373 130.641 187.447 130.697 187.534C130.752 187.62 130.789 187.717 130.807 187.818C130.824 187.919 130.822 188.023 130.799 188.123C130.777 188.223 130.734 188.317 130.675 188.401L124.831 196.778C124.772 196.862 124.698 196.934 124.611 196.989C124.525 197.044 124.428 197.081 124.327 197.099C124.226 197.117 124.123 197.114 124.022 197.092C123.922 197.069 123.828 197.027 123.744 196.968C123.659 196.91 123.586 196.835 123.53 196.749C123.475 196.663 123.437 196.566 123.419 196.464C123.401 196.363 123.404 196.259 123.428 196.159C123.451 196.058 123.494 195.964 123.555 195.881L129.399 187.513C129.517 187.344 129.698 187.228 129.901 187.191C130.105 187.154 130.315 187.198 130.486 187.314Z" fill="#BD6AF0"/>
<path d="M170.646 204.826L177.917 202.901L176.75 211.757C176.75 211.757 171.115 211.378 168.542 207.25L170.646 204.826Z" fill="#FFC3BD"/>
<path d="M184.698 205.883L183.142 213.024L176.76 211.757L177.916 202.901L184.698 205.883Z" fill="#FFC3BD"/>
<path d="M68.395 394.789L76.1439 397.112L82.5066 377.795L74.7677 375.471L68.395 394.789Z" fill="#FFC3BD"/>
<path d="M16.9651 369.837L24.0658 374.304L34.2281 357.53L27.1275 353.072L16.9651 369.837Z" fill="#FFC3BD"/>
<path d="M24.4747 373.666L18.3813 366.426C18.2763 366.301 18.1298 366.218 17.9686 366.192C17.8074 366.167 17.6423 366.2 17.5037 366.286L10.2136 370.674C10.0551 370.78 9.92075 370.917 9.8194 371.078C9.71806 371.24 9.652 371.42 9.62561 371.609C9.59923 371.797 9.6131 371.989 9.66632 372.172C9.71953 372.355 9.81088 372.524 9.93434 372.669C12.0984 375.152 13.2752 376.249 15.918 379.43C17.5635 381.425 21.443 386.98 23.7268 389.682C26.0105 392.385 29.7104 389.892 28.9625 388.565C25.7911 382.582 24.9734 377.984 24.9734 375.082C24.9755 374.567 24.7993 374.066 24.4747 373.666Z" fill="#263238"/>
<path d="M78.0687 393.562L68.8538 389.692C68.6824 389.618 68.4912 389.604 68.3106 389.651C68.1299 389.698 67.9701 389.804 67.8565 389.952L62.7903 396.404C62.669 396.556 62.5848 396.734 62.5446 396.924C62.5043 397.114 62.5091 397.311 62.5585 397.499C62.608 397.687 62.7006 397.861 62.8292 398.007C62.9578 398.153 63.1186 398.266 63.2989 398.339C66.5401 399.725 68.0859 400.333 72.1348 402.059C74.638 403.106 81.4993 407.364 85.2092 407.813C88.9191 408.262 90.046 404.692 88.58 404.173C82.0378 401.859 80.2926 397.242 79.1258 394.619C78.9195 394.146 78.5419 393.768 78.0687 393.562Z" fill="#263238"/>
<path opacity="0.2" d="M82.5065 377.805L79.2255 387.758L71.2173 386.222L74.7576 375.481L82.5065 377.805Z" fill="black"/>
<path opacity="0.2" d="M27.1275 353.072L34.2281 357.54L28.9824 366.177L21.8818 361.719L27.1275 353.072Z" fill="black"/>
<path d="M121.64 178.757C121.64 178.757 124.941 181.011 103.998 226.517L71.0378 217.382C75.3062 204.108 77.6099 195.841 78.8266 166.521C83.7054 166.832 88.5551 167.499 93.337 168.515C98.416 169.54 103.415 170.926 108.296 172.664C112.846 174.465 117.299 176.499 121.64 178.757Z" fill="#BD6AF0"/>
<path opacity="0.3" d="M121.64 178.757C121.64 178.757 124.941 181.011 103.998 226.517L71.0378 217.382C75.3062 204.108 77.6099 195.841 78.8266 166.521C83.7054 166.832 88.5551 167.499 93.337 168.515C98.416 169.54 103.415 170.926 108.296 172.664C112.846 174.465 117.299 176.499 121.64 178.757Z" fill="black"/>
<path d="M99.4703 152.09C99.0814 157.176 97.5854 166.261 93.3171 168.545C93.3171 168.545 90.6843 175.686 101.644 177.969C110.41 179.794 108.296 172.694 108.296 172.694C103.31 169.921 106.381 165.015 107.299 159.52L99.4703 152.09Z" fill="#FFC3BD"/>
<path opacity="0.2" d="M99.4703 152.1C99.1612 156.179 98.134 162.861 95.4812 166.501C98.473 166.8 103.3 165.872 104.656 163.619C105.35 162.004 105.913 160.336 106.342 158.632L99.4703 152.1Z" fill="black"/>
<path d="M119.456 151.462C115.906 159.041 114.569 162.322 109.074 164.755C100.807 168.415 92.2799 162.402 93.4866 153.925C94.5736 146.286 100.188 135.186 109.014 135.096C110.958 135.071 112.877 135.542 114.587 136.465C116.298 137.389 117.745 138.733 118.791 140.372C119.837 142.011 120.446 143.89 120.563 145.831C120.679 147.771 120.298 149.71 119.456 151.462Z" fill="#FFC3BD"/>
<path d="M121.401 143.324C114.09 145.318 102.392 138.178 101.136 135.555C109.064 132.354 117.661 133.152 120.862 136.263C124.063 139.375 121.401 143.324 121.401 143.324Z" fill="#263238"/>
<path d="M119.306 159.998C118.043 161.014 116.43 161.487 114.818 161.315C112.694 161.066 112.435 158.971 113.702 157.386C114.838 155.949 117.322 154.394 119.137 155.391C119.529 155.627 119.856 155.957 120.089 156.351C120.322 156.745 120.452 157.191 120.469 157.649C120.486 158.106 120.388 158.561 120.185 158.971C119.982 159.381 119.68 159.734 119.306 159.998Z" fill="#FFC3BD"/>
<path d="M120.962 141.14C115.397 140.422 112.535 147.483 113.642 152.11C114.749 156.737 102.293 162.631 102.452 171.168C102.701 184.671 123.724 183.305 120.234 174.16C119.057 171.048 123.664 165.294 125.061 161.694C128.192 153.536 125.22 141.688 120.962 141.14Z" fill="#263238"/>
<path d="M103.998 226.517C103.998 226.517 113.053 274.078 105.354 310.049C100.198 334.144 84.2817 382.851 84.2817 382.851L69.7414 382.472C69.7414 382.472 81.1303 331.391 84.0424 311.306C89.0288 276.94 79.8438 219.855 79.8438 219.855L103.998 226.517Z" fill="#BD6AF0"/>
<path opacity="0.2" d="M88.3905 239.601L83.4639 248.836C84.8149 262.091 85.5006 275.405 85.5183 288.728C92.978 270.717 89.9861 248.856 88.3905 239.601Z" fill="black"/>
<path d="M86.2962 385.693L68.395 382.851L69.7413 376.109L88.4005 379.75L86.2962 385.693Z" fill="#263238"/>
<path d="M96.7677 224.612C96.7677 224.612 87.9118 273.409 73.2418 302.959C61.3941 326.824 31.8446 364.002 31.8446 364.002L23.7666 355.665C23.7666 355.665 43.0441 315.534 51.8501 299.678C73.4512 260.784 56.3778 229.17 71.0179 217.372L96.7677 224.612Z" fill="#BD6AF0"/>
<path d="M33.2807 366.097L21.0939 358.118L23.5871 352.833L37.0006 362.187L33.2807 366.097Z" fill="#263238"/>
<path d="M71.0378 215.308L68.7341 217.851C68.5545 218.05 68.7341 218.359 69.1429 218.459L103.749 228.013C104.048 228.103 104.337 228.013 104.407 227.844L105.524 224.971C105.604 224.772 105.394 224.523 105.065 224.433L71.6661 215.188C71.5597 215.154 71.4464 215.147 71.3367 215.168C71.2269 215.189 71.1241 215.237 71.0378 215.308Z" fill="white"/>
<path d="M74.5083 220.284L73.6207 220.035C73.4412 219.985 73.3315 219.855 73.3714 219.756L74.8574 216.036C74.8574 215.926 75.0768 215.876 75.2563 215.926L76.1538 216.175C76.3234 216.225 76.443 216.355 76.3932 216.455L74.9172 220.174C74.8705 220.235 74.8052 220.279 74.7313 220.298C74.6574 220.318 74.5791 220.313 74.5083 220.284Z" fill="#BD6AF0"/>
<path d="M101.146 227.664L100.258 227.415C100.079 227.365 99.969 227.235 100.009 227.125L101.495 223.406C101.495 223.296 101.714 223.246 101.894 223.296L102.791 223.545C102.971 223.545 103.08 223.725 103.031 223.834L101.555 227.554C101.515 227.664 101.325 227.714 101.146 227.664Z" fill="#BD6AF0"/>
<path d="M87.832 224.024L86.9345 223.775C86.7549 223.775 86.6452 223.595 86.6951 223.485L88.1711 219.766C88.1711 219.656 88.4004 219.616 88.58 219.666L89.4675 219.905C89.6471 219.955 89.7568 220.085 89.7169 220.194L88.2309 223.914C88.191 224.024 87.9916 224.024 87.832 224.024Z" fill="#BD6AF0"/>
<path d="M106.82 148.978C106.571 149.607 106.032 149.976 105.624 149.826C105.215 149.677 105.075 149.018 105.324 148.39C105.574 147.762 106.112 147.393 106.521 147.542C106.93 147.692 107.07 148.35 106.82 148.978Z" fill="#263238"/>
<path d="M99.6797 146.156C99.4204 146.784 98.8919 147.153 98.473 147.004C98.0541 146.854 97.9245 146.196 98.1838 145.558C98.4431 144.92 98.9617 144.561 99.3805 144.71C99.7994 144.86 99.959 145.518 99.6797 146.156Z" fill="#263238"/>
<path d="M99.5501 144.82L98.2038 143.823C98.2038 143.823 98.5129 145.239 99.5501 144.82Z" fill="#263238"/>
<path d="M101.136 147.991C100.001 149.208 98.7058 150.265 97.2863 151.133C97.5173 151.489 97.8236 151.791 98.1837 152.017C98.5438 152.242 98.9489 152.387 99.3706 152.439L101.136 147.991Z" fill="#ED847E"/>
<path d="M101.824 156.129C101.414 156.054 101.013 155.937 100.627 155.78C100.606 155.772 100.587 155.76 100.57 155.745C100.554 155.73 100.541 155.711 100.531 155.691C100.522 155.671 100.517 155.649 100.516 155.626C100.516 155.604 100.519 155.581 100.527 155.561C100.547 155.521 100.58 155.491 100.62 155.474C100.661 155.458 100.706 155.457 100.747 155.471C101.531 155.803 102.383 155.945 103.232 155.884C104.082 155.823 104.905 155.562 105.633 155.122C105.665 155.093 105.706 155.077 105.748 155.077C105.791 155.077 105.832 155.093 105.863 155.122C105.88 155.136 105.893 155.153 105.902 155.173C105.912 155.193 105.916 155.215 105.916 155.236C105.916 155.258 105.912 155.28 105.902 155.3C105.893 155.32 105.88 155.337 105.863 155.351C104.669 156.126 103.22 156.406 101.824 156.129Z" fill="#263238"/>
<path d="M111.218 145.558C111.162 145.547 111.11 145.523 111.066 145.486C111.022 145.449 110.989 145.402 110.969 145.348C110.803 144.862 110.522 144.422 110.151 144.066C109.78 143.71 109.328 143.449 108.835 143.304C108.75 143.283 108.676 143.229 108.63 143.155C108.583 143.08 108.567 142.991 108.585 142.905C108.595 142.862 108.613 142.822 108.638 142.786C108.663 142.75 108.695 142.72 108.732 142.696C108.77 142.673 108.811 142.658 108.854 142.651C108.898 142.644 108.942 142.645 108.984 142.656C109.584 142.824 110.134 143.135 110.587 143.563C111.04 143.99 111.384 144.52 111.587 145.109C111.617 145.191 111.614 145.282 111.579 145.361C111.543 145.441 111.479 145.504 111.398 145.538C111.341 145.559 111.279 145.566 111.218 145.558Z" fill="#263238"/>
<path d="M98.5029 140.731C98.4454 140.73 98.3891 140.714 98.34 140.685C98.2908 140.655 98.2506 140.612 98.2237 140.561C98.2026 140.523 98.1892 140.482 98.1843 140.439C98.1794 140.395 98.183 140.352 98.1951 140.31C98.2071 140.268 98.2273 140.229 98.2545 140.196C98.2816 140.162 98.3152 140.133 98.3533 140.113C98.8915 139.8 99.4972 139.622 100.119 139.595C100.741 139.567 101.36 139.69 101.924 139.953C101.964 139.972 101.999 139.999 102.028 140.032C102.057 140.066 102.079 140.105 102.092 140.147C102.105 140.189 102.109 140.233 102.104 140.277C102.099 140.321 102.085 140.364 102.063 140.402C102.042 140.44 102.014 140.474 101.98 140.501C101.946 140.528 101.908 140.548 101.866 140.56C101.824 140.572 101.78 140.576 101.737 140.571C101.694 140.566 101.652 140.553 101.614 140.531C101.147 140.323 100.636 140.229 100.124 140.256C99.6127 140.284 99.1151 140.433 98.6725 140.691C98.6206 140.719 98.562 140.733 98.5029 140.731Z" fill="#263238"/>
<path d="M79.395 176.553C78.5374 176.364 77.8692 176.204 77.1312 176.015C76.3932 175.825 75.7051 175.616 74.997 175.406C73.6008 174.968 72.2046 174.519 70.8384 174.01C68.1036 172.968 65.424 171.786 62.8102 170.47C60.1892 169.127 57.6605 167.611 55.2409 165.932L53.4458 164.626C52.8474 164.177 52.2789 163.698 51.7005 163.24L50.8329 162.532L49.9353 161.744C49.3569 161.215 48.7884 160.677 48.2699 160.118C44.3188 155.784 40.9649 150.94 38.297 145.717C36.9607 143.204 35.734 140.651 34.5772 138.078C33.4203 135.505 32.3931 132.902 31.4657 130.18L35.5545 128.434C36.851 130.768 38.1973 133.172 39.6135 135.485C41.0296 137.799 42.4258 140.123 43.9417 142.347C46.771 146.738 50.0753 150.805 53.7948 154.473C54.2436 154.892 54.7023 155.281 55.1611 155.66L55.8592 156.209L56.647 156.757C57.1756 157.116 57.6443 157.505 58.2227 157.854L59.8483 158.852C62.0579 160.194 64.3347 161.422 66.6697 162.532C69.0233 163.629 71.4334 164.626 73.9 165.523C75.1167 165.972 76.3633 166.381 77.5999 166.77L79.4549 167.309C80.0532 167.478 80.7214 167.658 81.2101 167.777L79.395 176.553Z" fill="#FFC3BD"/>
<path d="M36.9906 131.446L34.3478 122.73L28.0649 128.913C28.0649 128.913 30.6977 132.763 34.1882 133.092L36.9906 131.446Z" fill="#FFC3BD"/>
<path d="M29.4511 118.671L25.7113 123.219L28.0649 128.913L34.3478 122.73L29.4511 118.671Z" fill="#FFC3BD"/>
<path d="M21.074 156.608C21.234 158.459 22.1229 160.171 23.5453 161.367C24.9676 162.563 26.8068 163.145 28.6583 162.985C30.5098 162.825 32.2218 161.936 33.4179 160.514C34.6139 159.092 35.1959 157.252 35.0359 155.401C35.0359 155.092 35.0359 154.783 34.9761 154.473L34.9063 154.015L34.8065 153.476L33.1411 144.93L26.6986 110.723L20.3559 76.506L17.1846 59.3926L15.5989 50.8359C15.0454 47.9769 14.7119 45.0796 14.6016 42.1696L15.5291 42C16.4791 44.7509 17.2127 47.5718 17.7231 50.437L19.3487 58.9837L22.6098 76.0772L29.1021 110.274L35.5046 144.491L37.0803 153.047L37.1801 153.576L37.2599 154.194C37.308 154.605 37.3313 155.018 37.3297 155.431C37.3091 156.262 37.1817 157.086 36.9507 157.884C36.3648 159.874 35.1265 161.609 33.4352 162.81C31.7439 164.012 29.6977 164.609 27.6258 164.507C25.5538 164.404 23.5766 163.608 22.012 162.246C20.4474 160.883 19.3864 159.035 18.9996 156.997L21.074 156.608Z" fill="#263238"/>
<path d="M-38.4239 107.791C-38.5635 107.043 -33.8563 105.537 -27.9125 104.42C-21.9687 103.303 -17.0322 103.004 -16.9424 103.752C-17.082 103.004 -11.5172 101.338 -4.5063 100.022C2.50459 98.7055 8.28882 98.2467 8.45836 99.0246C8.31874 98.2866 15.6687 96.2821 24.8736 94.5568C34.0785 92.8315 41.6579 92.0336 41.8274 92.7716C41.6978 92.0336 47.2526 90.3582 54.2635 89.0418C61.2744 87.7254 67.0786 87.2666 67.2282 88.0445C67.0886 87.3065 71.7858 85.8006 77.7296 84.6837C83.6734 83.5667 88.6099 83.2675 88.6997 84.0055C84.0424 59.1832 52.3786 44.2339 17.6932 50.3173L16.6062 50.5168L15.5191 50.7262C-18.9968 57.5476 -43.0812 82.9684 -38.4239 107.791Z" fill="#BD6AF0"/>
<path opacity="0.2" d="M-16.8925 103.752C-17.0322 103.004 -11.4673 101.338 -4.45644 100.022C2.55445 98.7055 8.33869 98.2467 8.50823 99.0246C8.36861 98.2866 15.7186 96.2821 24.9235 94.5568C34.1284 92.8315 41.7077 92.0337 41.8773 92.7716C41.7476 92.0337 47.3025 90.3582 54.3134 89.0418C61.3243 87.7254 67.1284 87.2667 67.278 88.0445C62.6407 63.3618 40.6307 46.6872 17.7929 50.3174L16.7059 50.5168L15.6188 50.7262C-7.05936 55.5331 -21.5299 79.059 -16.8925 103.752Z" fill="white"/>
<path d="M8.47831 98.9847C8.33869 98.2467 15.6886 96.2422 24.8936 94.5169C34.0985 92.7916 41.6778 91.9938 41.8474 92.7318C37.1402 67.6501 25.8908 48.7117 16.666 50.437C7.44113 52.1623 3.77114 73.9031 8.47831 98.9847Z" fill="#BD6AF0"/>
<path d="M90.8637 170.729C89.3379 166.74 73.9099 163.938 73.9099 163.938L68.9235 173.99C68.9235 173.99 79.6942 181.969 84.9498 180.483C89.4276 179.226 92.8184 175.775 90.8637 170.729Z" fill="#BD6AF0"/>
<path opacity="0.3" d="M90.8637 170.729C89.3379 166.74 73.9099 163.938 73.9099 163.938L68.9235 173.99C68.9235 173.99 79.6942 181.969 84.9498 180.483C89.4276 179.226 92.8184 175.775 90.8637 170.729Z" fill="black"/>
<path d="M68.6443 174.668C68.4713 174.577 68.3392 174.423 68.2745 174.238C68.2098 174.053 68.2172 173.851 68.2953 173.671L73.3515 163.619C73.397 163.527 73.4603 163.445 73.5377 163.377C73.6151 163.31 73.7051 163.259 73.8024 163.226C73.8997 163.194 74.0025 163.181 74.1048 163.188C74.2072 163.196 74.307 163.223 74.3986 163.27C74.4897 163.316 74.5707 163.38 74.637 163.458C74.7034 163.535 74.7537 163.626 74.7852 163.723C74.8167 163.82 74.8287 163.923 74.8205 164.024C74.8124 164.126 74.7842 164.226 74.7377 164.317L69.6914 174.369C69.5908 174.546 69.4247 174.677 69.229 174.733C69.0332 174.789 68.8233 174.766 68.6443 174.668Z" fill="#BD6AF0"/>
<path d="M26.4793 378.283C26.7457 378.271 27.0011 378.173 27.2073 378.004C27.302 377.939 27.3783 377.851 27.429 377.748C27.4797 377.645 27.5029 377.531 27.4965 377.416C27.4067 376.359 24.734 374.933 24.4348 374.773C24.4079 374.756 24.3768 374.747 24.3451 374.747C24.3133 374.747 24.2822 374.756 24.2553 374.773C24.2283 374.791 24.2079 374.817 24.1971 374.848C24.1863 374.878 24.1857 374.912 24.1955 374.943C24.4947 376.02 25.1928 377.865 26.19 378.204C26.2819 378.245 26.3794 378.272 26.4793 378.283ZM24.6343 375.292C25.5418 375.81 27.1075 376.827 27.1674 377.476C27.1686 377.534 27.1545 377.591 27.1265 377.642C27.0985 377.693 27.0575 377.735 27.0078 377.765C26.9089 377.856 26.7882 377.921 26.6572 377.952C26.5263 377.984 26.3895 377.981 26.2599 377.944C25.6914 377.715 25.093 376.738 24.6343 375.262V375.292Z" fill="#BD6AF0"/>
<path d="M26.8881 375.681C27.3136 375.715 27.7383 375.606 28.0948 375.371C28.2085 375.272 28.2851 375.137 28.3123 374.989C28.3394 374.84 28.3155 374.687 28.2444 374.554C28.1874 374.417 28.1018 374.293 27.9935 374.192C27.8852 374.09 27.7566 374.013 27.6161 373.965C26.4792 373.566 24.365 374.723 24.2752 374.773C24.2508 374.787 24.2305 374.808 24.2165 374.832C24.2024 374.857 24.1952 374.884 24.1954 374.913C24.1911 374.942 24.1954 374.971 24.2079 374.998C24.2203 375.025 24.2402 375.047 24.2653 375.062C25.0823 375.462 25.9786 375.673 26.8881 375.681ZM27.0576 374.215C27.2102 374.211 27.3622 374.235 27.5064 374.284C27.6039 374.313 27.6933 374.364 27.7677 374.434C27.8421 374.503 27.8994 374.588 27.9353 374.683C28.035 374.943 27.9353 375.052 27.8754 375.122C27.3768 375.541 25.6216 375.302 24.724 374.923C25.4472 374.534 26.2405 374.293 27.0576 374.215Z" fill="#BD6AF0"/>
<path d="M81.5292 396.813C82.1435 397.128 82.8419 397.239 83.5238 397.132C83.7027 397.092 83.8698 397.011 84.0118 396.895C84.1538 396.779 84.2667 396.631 84.3415 396.464C84.3957 396.379 84.4245 396.28 84.4245 396.18C84.4245 396.079 84.3957 395.98 84.3415 395.895C83.7432 394.978 79.7541 395.118 79.2953 395.138C79.2608 395.139 79.2275 395.151 79.2005 395.172C79.1736 395.194 79.1543 395.224 79.1457 395.257C79.1352 395.29 79.1354 395.325 79.1462 395.357C79.1569 395.389 79.1777 395.417 79.2056 395.437C79.931 395.974 80.7096 396.435 81.5292 396.813ZM83.6734 395.816C83.8068 395.857 83.9249 395.936 84.0124 396.045C84.0335 396.081 84.0445 396.123 84.0445 396.165C84.0445 396.207 84.0335 396.248 84.0124 396.284C83.9568 396.409 83.8729 396.519 83.7673 396.606C83.6617 396.692 83.5373 396.753 83.4041 396.783C82.4068 397.032 80.6716 396.025 79.764 395.427C81.0811 395.357 82.401 395.498 83.6734 395.846V395.816Z" fill="#BD6AF0"/>
<path d="M79.1756 395.457H79.2454C80.4222 395.457 83.2346 394.659 83.4839 393.771C83.5338 393.582 83.4839 393.303 83.065 393.063C81.3497 392.066 79.1956 395.058 79.0759 395.197C79.061 395.223 79.0532 395.252 79.0532 395.282C79.0532 395.312 79.061 395.341 79.0759 395.367C79.1019 395.404 79.136 395.435 79.1756 395.457ZM82.7858 393.293L82.9055 393.362C83.2047 393.532 83.1747 393.652 83.1548 393.691C83.0052 394.26 80.9209 395.008 79.5945 395.118C80.143 394.449 81.619 392.814 82.7858 393.293Z" fill="#BD6AF0"/>
<path d="M106.691 147.642L105.344 146.645C105.344 146.645 105.653 148.101 106.691 147.642Z" fill="#263238"/>
<path d="M109.543 67.88V74.696H120.535V81.032H109.543V88.424H121.975V95H101.335V61.304H121.975V67.88H109.543ZM165.464 61.304V95H157.256V74.792L149.72 95H143.096L135.512 74.744V95H127.304V61.304H137L146.456 84.632L155.816 61.304H165.464ZM197.047 72.152C197.047 74.104 196.599 75.896 195.703 77.528C194.807 79.128 193.431 80.424 191.575 81.416C189.719 82.408 187.415 82.904 184.663 82.904H179.575V95H171.367V61.304H184.663C187.351 61.304 189.623 61.768 191.479 62.696C193.335 63.624 194.727 64.904 195.655 66.536C196.583 68.168 197.047 70.04 197.047 72.152ZM184.039 76.376C185.607 76.376 186.775 76.008 187.543 75.272C188.311 74.536 188.695 73.496 188.695 72.152C188.695 70.808 188.311 69.768 187.543 69.032C186.775 68.296 185.607 67.928 184.039 67.928H179.575V76.376H184.039ZM222.296 89.048H209.72L207.704 95H199.112L211.304 61.304H220.808L233 95H224.312L222.296 89.048ZM220.184 82.712L216.008 70.376L211.88 82.712H220.184ZM260.95 61.304V67.88H252.022V95H243.814V67.88H234.886V61.304H260.95ZM273.278 61.304V95H265.07V61.304H273.278ZM300.202 89.048H287.626L285.61 95H277.018L289.21 61.304H298.714L310.906 95H302.218L300.202 89.048ZM298.09 82.712L293.914 70.376L289.786 82.712H298.09Z" fill="#F2F2F2"/>
<defs>
<filter id="filter0_d_635_2" x="-71" y="-83" width="549" height="531" filterUnits="userSpaceOnUse" color-interpolation-filters="sRGB">
<feFlood flood-opacity="0" result="BackgroundImageFix"/>
<feColorMatrix in="SourceAlpha" type="matrix" values="0 0 0 0 0 0 0 0 0 0 0 0 0 0 0 0 0 0 127 0" result="hardAlpha"/>
<feMorphology radius="61" operator="dilate" in="SourceAlpha" result="effect1_dropShadow_635_2"/>
<feOffset dx="-2" dy="4"/>
<feGaussianBlur stdDeviation="4"/>
<feComposite in2="hardAlpha" operator="out"/>
<feColorMatrix type="matrix" values="0 0 0 0 0 0 0 0 0 0 0 0 0 0 0 0 0 0 0.11 0"/>
<feBlend mode="normal" in2="BackgroundImageFix" result="effect1_dropShadow_635_2"/>
<feBlend mode="normal" in="SourceGraphic" in2="effect1_dropShadow_635_2" result="shape"/>
</filter>
<linearGradient id="paint0_linear_635_2" x1="205.5" y1="-18" x2="205.5" y2="375" gradientUnits="userSpaceOnUse">
<stop stop-color="#AA5BC6"/>
<stop offset="1" stop-color="#440A67"/>
</linearGradient>
<linearGradient id="paint1_linear_635_2" x1="205.5" y1="-18" x2="205.5" y2="375" gradientUnits="userSpaceOnUse">
<stop stop-color="#AA5BC6"/>
<stop offset="1" stop-color="#440A67"/>
</linearGradient>
</defs>
</svg>
